<svg preserveAspectRatio="xMidYMid meet" viewBox="0 0 295.824 913.714" fill="none" xmlns="http://www.w3.org/2000/svg">
<g id="Group">
<path id="Vector" d="M132.054 79.6929C140.083 89.9805 154.335 102.727 177.921 107.595C177.921 107.595 185.047 109.652 193.779 108.197C196.489 107.796 199.299 107.043 202.11 105.788C210.34 102.175 218.57 94.3966 222.735 78.5888C222.735 78.5888 227.854 63.4335 232.822 47.0235C233.023 46.2708 233.223 45.518 233.474 44.8155C238.292 28.807 242.808 12.1461 242.306 7.37872" stroke="var(--stroke-0, #294485)" stroke-width="2.00733" stroke-miterlimit="10"/>
<path id="Vector_2" d="M125.229 13.0989C125.229 13.0989 110.023 10.389 105.808 25.444C105.808 25.444 98.5312 50.5858 124.075 52.6935L123.673 58.8159C123.372 63.2822 124.376 67.6984 126.584 71.5625C127.939 73.8709 129.695 76.631 131.953 79.5918" stroke="var(--stroke-0, #294485)" stroke-width="2.00733" stroke-miterlimit="10"/>
<path id="Vector_3" d="M251.289 0.000301863C251.289 0.000301863 251.289 1.85709 250.988 4.96846C250.135 13.1985 246.773 30.2107 233.474 44.814" stroke="var(--stroke-0, #294485)" stroke-width="2.00733" stroke-miterlimit="10"/>
<path id="Vector_4" d="M232.822 47.0231C232.822 47.0231 246.723 50.3854 239.747 65.34C239.747 65.34 234.227 77.3338 222.685 78.6386" stroke="var(--stroke-0, #294485)" stroke-width="2.00733" stroke-miterlimit="10"/>
<path id="Vector_5" d="M188.861 19.923L165.928 16.4102C163.719 16.0589 162.214 14.0014 162.565 11.7933C162.866 9.78601 164.623 8.38087 166.58 8.38087C166.781 8.38087 166.981 8.38087 167.182 8.38087L190.116 11.8937C192.324 12.1948 193.829 14.2523 193.478 16.4604C193.177 18.4677 191.421 19.8729 189.463 19.8729C189.213 19.8729 189.062 19.8729 188.861 19.8729V19.923Z" stroke="var(--stroke-0, #294485)" stroke-width="2.00733" stroke-miterlimit="10"/>
<path id="Vector_6" d="M230.262 34.526L212.247 27.4C210.34 26.6473 209.386 24.4894 210.139 22.5824L210.34 22.0304C211.143 20.1234 213.301 19.1699 215.207 19.9227L233.223 27.0487C235.13 27.8015 236.084 29.9594 235.331 31.8663L235.08 32.4183C234.327 34.3253 232.169 35.2788 230.262 34.526Z" stroke="var(--stroke-0, #294485)" stroke-width="2.00733" stroke-miterlimit="10"/>
<path id="Vector_7" d="M161.963 26.3955C161.963 26.3955 181.334 26.9476 183.843 31.9659" stroke="var(--stroke-0, #294485)" stroke-width="2.00733" stroke-miterlimit="10"/>
<path id="Vector_8" d="M207.58 38.3413C207.58 38.3413 215.308 39.0439 220.778 41.1516C223.187 42.1051 225.144 43.2593 225.947 44.7648" stroke="var(--stroke-0, #294485)" stroke-width="2.00733" stroke-miterlimit="10"/>
<path id="Vector_9" d="M222.986 44.4623C222.986 46.4195 221.38 48.0254 219.423 48.0254C217.466 48.0254 215.86 46.4195 215.86 44.4623C215.86 42.5052 217.466 40.8993 219.423 40.8993C219.925 40.8993 220.376 40.9997 220.828 41.2004C222.083 41.7023 222.986 43.007 222.986 44.4623Z" stroke="var(--stroke-0, #294485)" stroke-width="2.00733" stroke-miterlimit="10"/>
<path id="Vector_10" d="M176.667 35.9324C178.745 35.9324 180.43 34.2473 180.43 32.1686C180.43 30.09 178.745 28.4049 176.667 28.4049C174.588 28.4049 172.903 30.09 172.903 32.1686C172.903 34.2473 174.588 35.9324 176.667 35.9324Z" stroke="var(--stroke-0, #294485)" stroke-width="2.00733" stroke-miterlimit="10"/>
<path id="Vector_11" d="M126.584 71.5607L125.43 98.5092L125.028 108.696C125.028 108.696 130.548 117.278 144.549 121.945L145.804 134.139H160.056L161.963 122.497C161.963 122.497 174.007 121.142 184.696 115.12C187.958 113.263 191.17 111.005 193.779 108.195" stroke="var(--stroke-0, #294485)" stroke-width="2.00733" stroke-miterlimit="10"/>
<path id="Vector_12" d="M167.471 67.5434C167.471 67.5434 181.471 82.5434 197.471 80.0434" stroke="var(--stroke-0, #294485)" stroke-width="2.00733" stroke-miterlimit="10"/>
<path id="Vector_13" d="M119.157 101.671C119.157 101.671 122.569 98.5097 125.43 98.5097" stroke="var(--stroke-0, #294485)" stroke-width="2.00733" stroke-miterlimit="10"/>
<path id="Vector_14" d="M6.69585 291.515L40.3689 156.371C40.3689 156.371 46.0897 140.212 67.6184 129.122L119.207 108.697V101.972" stroke="var(--stroke-0, #294485)" stroke-width="2.00733" stroke-miterlimit="10"/>
<path id="Vector_15" d="M124.978 108.696C124.978 108.696 119.157 105.384 119.157 101.972V101.671" stroke="var(--stroke-0, #294485)" stroke-width="2.00733" stroke-miterlimit="10"/>
<path id="Vector_16" d="M15.1768 326.593C14.7753 328.299 14.3738 330.156 14.1731 332.163C14.0226 333.418 12.6676 334.02 11.6639 333.267C8.60276 330.858 3.63461 325.689 4.18663 317.71C4.28699 316.556 4.03608 315.452 3.48406 314.448C1.52691 311.036 -2.23684 301.802 6.69579 291.615C9.75698 288.102 14.3237 284.489 20.8977 280.926C20.8977 280.926 39.4655 270.638 52.5132 279.772V288.754C52.5132 290.16 52.9648 291.515 53.8179 292.669C55.5743 295.078 58.0835 299.895 54.4201 305.014C54.4201 305.014 22.2526 298.691 15.1266 326.643L15.1768 326.593Z" stroke="var(--stroke-0, #294485)" stroke-width="2.00733" stroke-miterlimit="10"/>
<path id="Vector_17" d="M52.5633 283.135L52.5131 279.672L51.2585 174.488" stroke="var(--stroke-0, #294485)" stroke-width="2.00733" stroke-miterlimit="10"/>
<path id="Vector_18" d="M66.0626 324.486C65.7615 321.324 51.2585 163.548 51.2585 174.488" stroke="var(--stroke-0, #294485)" stroke-width="2.00733" stroke-miterlimit="10"/>
<path id="Vector_19" d="M87.8924 404.328C87.8924 404.328 87.8924 404.428 87.8924 404.478C87.8924 404.529 87.8924 404.629 87.9426 404.629C88.4444 405.532 90.251 408.443 94.4664 411.103C98.9829 413.963 106.31 416.522 117.852 416.021C117.852 416.021 122.168 423.046 99.6855 419.634C99.3844 419.634 99.0833 419.533 98.8324 419.483C95.1188 418.429 68.8227 410.149 63.2022 387.667C62.9011 386.463 62.3491 385.308 61.4458 384.405C60.6428 383.602 59.589 382.599 58.2842 381.244C46.0897 368.999 13.6713 335.226 15.1266 326.594" stroke="var(--stroke-0, #294485)" stroke-width="2.00733" stroke-miterlimit="10"/>
<path id="Vector_20" d="M112.583 407.739C116.748 408.843 121.565 409.697 127.086 410.198C127.086 410.198 129.444 416.12 118.103 415.367C118.103 415.367 103.7 415.869 94.5166 411.102C91.5557 409.596 89.1469 407.489 87.9927 404.628" stroke="var(--stroke-0, #294485)" stroke-width="2.00733" stroke-miterlimit="10"/>
<path id="Vector_21" d="M89.1972 395.344C89.4983 395.745 89.8496 396.147 90.2511 396.498C92.6599 398.857 99.3343 404.327 112.532 407.739" stroke="var(--stroke-0, #294485)" stroke-width="2.00733" stroke-miterlimit="10"/>
<path id="Vector_22" d="M112.583 407.739C105.005 406.334 96.4236 403.172 90.3013 396.498" stroke="var(--stroke-0, #294485)" stroke-width="2.00733" stroke-miterlimit="10"/>
<path id="Vector_23" d="M93.814 383.099C93.814 383.099 93.8642 383.199 93.9646 383.25C94.8177 384.203 99.1836 389.071 107.062 393.437C113.285 396.9 121.616 399.961 132.154 400.563C132.154 400.563 135.817 403.674 133.007 406.485C132.305 407.237 131.201 407.89 129.494 408.542C129.494 408.542 121.816 409.345 112.583 407.639" stroke="var(--stroke-0, #294485)" stroke-width="2.00733" stroke-miterlimit="10"/>
<path id="Vector_24" d="M54.4703 304.913L57.8326 306.921C59.8901 308.125 61.0945 310.333 61.0945 312.642C61.0945 313.695 61.3454 314.649 61.7971 315.602L66.0627 324.435L78.3074 349.777C79.7125 352.738 83.0246 354.244 86.1862 353.29C87.5411 352.889 88.9463 352.588 90.4016 352.286C94.5668 351.433 98.732 350.982 99.836 351.132C101.141 351.283 106.661 353.892 111.83 357.154C116.346 360.015 120.612 363.377 121.465 365.936C123.372 371.507 115.343 374.417 112.031 372.41C112.031 372.41 95.0686 360.968 96.0221 362.825C96.0221 362.825 109.923 385.608 133.509 392.282C133.509 392.282 138.276 396.448 131.953 399.057C131.953 399.057 118.856 398.957 107.113 393.487C102.144 391.229 97.4272 387.917 94.0148 383.3" stroke="var(--stroke-0, #294485)" stroke-width="2.00733" stroke-miterlimit="10"/>
<path id="Vector_25" d="M90.4016 352.188C81.469 284.792 108.919 134.091 108.919 134.091H145.804C145.804 134.091 124.677 129.073 122.067 122.7" stroke="var(--stroke-0, #294485)" stroke-width="2.00733" stroke-miterlimit="10"/>
<path id="Vector_26" d="M160.056 134.14C160.056 134.14 186.101 135.847 195.736 122.749" stroke="var(--stroke-0, #294485)" stroke-width="2.00733" stroke-miterlimit="10"/>
<path id="Vector_27" d="M124.125 151.804C124.125 154.113 122.268 155.97 119.96 155.97C117.651 155.97 115.794 154.063 115.794 151.804C115.794 149.546 117.701 147.639 119.96 147.639C122.218 147.639 124.125 149.496 124.125 151.804Z" stroke="var(--stroke-0, #294485)" stroke-width="2.00733" stroke-miterlimit="10"/>
<path id="Vector_28" d="M191.621 153.962C191.621 156.22 189.815 158.027 187.556 158.027C185.298 158.027 183.542 156.22 183.542 153.962C183.542 151.704 185.348 149.948 187.556 149.948C189.765 149.948 191.621 151.754 191.621 153.962Z" stroke="var(--stroke-0, #294485)" stroke-width="2.00733" stroke-miterlimit="10"/>
<path id="Vector_29" d="M183.542 197.923C183.542 200.181 181.735 201.988 179.477 201.988C177.219 201.988 175.412 200.181 175.412 197.923C175.412 195.665 177.219 193.858 179.477 193.858C181.735 193.858 183.542 195.665 183.542 197.923Z" stroke="var(--stroke-0, #294485)" stroke-width="2.00733" stroke-miterlimit="10"/>
<path id="Vector_30" d="M117.2 195.766C117.2 198.476 114.991 200.684 112.282 200.684C109.572 200.684 107.364 198.526 107.364 195.766C107.364 193.006 109.572 190.898 112.282 190.898C114.991 190.898 117.2 193.056 117.2 195.766Z" stroke="var(--stroke-0, #294485)" stroke-width="2.00733" stroke-miterlimit="10"/>
<path id="Vector_31" d="M112.131 247.756C112.131 250.215 110.174 252.222 107.715 252.222C105.256 252.222 103.249 250.215 103.249 247.756C103.249 245.297 105.206 243.289 107.715 243.289C110.224 243.289 112.131 245.246 112.131 247.756Z" stroke="var(--stroke-0, #294485)" stroke-width="2.00733" stroke-miterlimit="10"/>
<path id="Vector_32" d="M172.1 254.18C174.622 254.18 176.667 252.135 176.667 249.613C176.667 247.091 174.622 245.046 172.1 245.046C169.578 245.046 167.533 247.091 167.533 249.613C167.533 252.135 169.578 254.18 172.1 254.18Z" stroke="var(--stroke-0, #294485)" stroke-width="2.00733" stroke-miterlimit="10"/>
<path id="Vector_33" d="M107.313 298.39C107.313 300.598 105.507 302.405 103.299 302.405C101.091 302.405 99.284 300.598 99.284 298.39C99.284 296.182 101.091 294.325 103.299 294.325C105.507 294.325 107.313 296.132 107.313 298.39Z" stroke="var(--stroke-0, #294485)" stroke-width="2.00733" stroke-miterlimit="10"/>
<path id="Vector_34" d="M165.576 305.265C167.793 305.265 169.591 303.468 169.591 301.251C169.591 299.033 167.793 297.236 165.576 297.236C163.359 297.236 161.561 299.033 161.561 301.251C161.561 303.468 163.359 305.265 165.576 305.265Z" stroke="var(--stroke-0, #294485)" stroke-width="2.00733" stroke-miterlimit="10"/>
<path id="Vector_35" d="M181.735 341.849L212.096 315.703L212.548 315.302C212.347 314.75 212.196 314.148 212.096 313.596C210.942 306.47 217.566 299.093 217.566 299.093L218.62 297.135C220.627 294.426 222.534 290.662 226.649 290.11C254.099 286.396 268.05 303.91 268.853 304.914" stroke="var(--stroke-0, #294485)" stroke-width="2.00733" stroke-miterlimit="10"/>
<path id="Vector_36" d="M257.261 160.237L257.161 160.337C254.702 162.896 219.523 201.788 218.871 283.136C218.871 283.136 200.805 292.169 205.572 315.253L181.735 341.8" stroke="var(--stroke-0, #294485)" stroke-width="2.00733" stroke-miterlimit="10"/>
<path id="Vector_37" d="M268.904 304.914C257.06 280.977 226.398 286.045 226.398 286.045C220.176 213.58 255.204 163.196 257.211 160.386" stroke="var(--stroke-0, #294485)" stroke-width="2.00733" stroke-miterlimit="10"/>
<path id="Vector_38" d="M202.11 105.787C202.11 105.787 282.001 141.719 283.758 153.963C283.758 153.963 308.649 204.598 283.758 313.345C283.758 313.345 283.908 319.568 281.75 324.085C281.75 324.085 283.908 330.659 280.145 335.476L273.571 342.351L270.309 346.266C270.309 346.266 263.986 355.399 258.114 354.245C258.114 354.245 258.114 351.485 257.412 347.42C255.404 336.38 247.576 315.554 217.616 312.241C215.81 312.041 214.003 311.89 212.046 311.84V317.009" stroke="var(--stroke-0, #294485)" stroke-width="2.00733" stroke-miterlimit="10"/>
<path id="Vector_39" d="M252.393 350.681L258.014 354.445" stroke="var(--stroke-0, #294485)" stroke-width="2.00733" stroke-miterlimit="10"/>
<path id="Vector_40" d="M217.666 312.242C217.666 312.242 200.353 327.749 181.735 341.851C164.422 354.948 145.904 366.892 139.079 363.931C139.079 363.931 121.866 353.945 111.98 356.906" stroke="var(--stroke-0, #294485)" stroke-width="2.00733" stroke-miterlimit="10"/>
<path id="Vector_41" d="M257.462 347.42C257.462 347.42 255.555 348.674 252.343 350.682C248.73 352.99 243.36 356.352 237.138 360.016C222.584 368.647 203.364 379.336 190.116 383.602C190.116 383.602 165.175 392.033 156.092 395.044C154.034 395.696 152.227 396.75 150.622 398.155C147.109 401.216 139.832 406.736 133.007 406.586" stroke="var(--stroke-0, #294485)" stroke-width="2.00733" stroke-miterlimit="10"/>
<path id="Vector_42" d="M50.004 436.044C50.004 436.044 96.6745 441.765 106.009 439.406C106.009 439.406 101.643 506.05 103.499 508.71C103.499 508.71 51.5095 509.763 41.9245 502.788" stroke="var(--stroke-0, #294485)" stroke-width="2.00733" stroke-miterlimit="10"/>
<path id="Vector_43" d="M58.3344 381.243L58.2842 381.645L56.3271 395.696C56.3271 395.696 80.0136 432.38 119.056 426.609C119.056 426.609 148.263 413.411 151.726 412.608C151.726 412.608 239.597 381.394 240.299 379.085" stroke="var(--stroke-0, #294485)" stroke-width="2.00733" stroke-miterlimit="10"/>
<path id="Vector_44" d="M240.249 379.085C248.529 446.933 263.935 662.27 263.935 662.27C257.462 664.177 250.938 665.883 244.213 667.288C216.562 673.31 187.406 675.468 159.855 675.468C120.261 675.468 84.0283 671.002 60.5927 667.288C43.5304 664.578 33.2428 662.27 33.2428 662.27C32.4399 609.126 36.6553 551.766 41.774 502.838C44.3835 477.796 47.2941 455.013 49.9037 436.094C54.1692 405.331 57.6821 384.806 58.2341 381.695C58.2341 381.494 58.2341 381.394 58.2843 381.294" stroke="var(--stroke-0, #294485)" stroke-width="2.00733" stroke-miterlimit="10"/>
<path id="Vector_45" d="M240.249 379.084V379.034" stroke="var(--stroke-0, #294485)" stroke-width="2.00733" stroke-miterlimit="10"/>
<path id="Vector_46" d="M237.188 360.017C238.041 362.576 239.095 369.301 240.249 379.036" stroke="var(--stroke-0, #294485)" stroke-width="2.00733" stroke-miterlimit="10"/>
<path id="Vector_47" d="M60.6429 667.289L62.8008 687.162L74.4433 793.501C74.4433 793.501 68.3711 801.931 74.4433 808.957C74.4433 808.957 70.5792 822.908 71.7334 825.267C71.7334 825.267 72.5865 825.568 74.2426 826.019C82.8239 828.478 111.93 835.805 132.104 828.779L133.459 828.278V815.732C133.459 815.732 138.929 809.358 133.459 801.179C133.459 801.179 141.84 734.134 138.929 694.388C138.327 686.911 137.423 680.387 135.918 675.419H169.039L171.297 693.234L184.847 800.677C184.847 800.677 177.018 817.538 184.847 823.109V835.604L188.861 837.11C188.861 837.11 214.354 830.987 237.589 835.203C238.041 835.253 238.493 835.353 238.944 835.454V821.152C238.944 821.152 245.117 816.234 240.199 804.842C240.199 804.842 249.232 742.866 246.371 689.772C245.97 681.993 245.267 674.466 244.314 667.289" stroke="var(--stroke-0, #294485)" stroke-width="2.00733" stroke-miterlimit="10"/>
<path id="Vector_48" d="M74.2928 825.967C74.2928 825.967 56.3271 852.564 48.2476 854.923C48.2476 854.923 29.9809 864.809 27.3714 864.508C27.3714 864.508 11.7142 866.816 11.9651 884.28L9.5061 885.234V893.163C9.5061 893.163 27.5219 908.569 74.2426 893.163C74.2426 893.163 80.666 891.456 93.1115 880.767C93.1115 880.767 102.395 873.541 107.263 871.634C107.966 871.383 108.568 871.182 109.07 871.182V880.366L136.62 871.684V856.177L134.563 856.98V856.83C134.713 855.023 136.269 836.104 132.104 828.677" stroke="var(--stroke-0, #294485)" stroke-width="2.00733" stroke-miterlimit="10"/>
<path id="Vector_49" d="M11.965 884.331C22.1522 897.53 64.4568 888.095 64.4568 888.095C64.4568 888.095 78.3576 884.783 84.0785 878.861C84.0785 878.861 97.9793 869.276 104.302 867.269L105.657 866.817L134.613 856.931L136.671 856.229" stroke="var(--stroke-0, #294485)" stroke-width="2.00733" stroke-miterlimit="10"/>
<path id="Vector_50" d="M188.861 837.108L183.642 889.55C183.642 889.55 187.858 907.917 215.408 903.651C215.408 903.651 234.428 902.648 246.02 886.689L237.589 835.251" stroke="var(--stroke-0, #294485)" stroke-width="2.00733" stroke-miterlimit="10"/>
<path id="Vector_51" d="M183.642 889.551V901.244C183.642 901.244 190.869 914.593 214.856 912.485C214.856 912.485 241.102 913.087 246.522 895.021L246.07 886.64" stroke="var(--stroke-0, #294485)" stroke-width="2.00733" stroke-miterlimit="10"/>
<path id="Vector_52" d="M62.851 687.16C62.851 687.16 110.876 683.145 138.979 694.386" stroke="var(--stroke-0, #294485)" stroke-width="2.00733" stroke-miterlimit="10"/>
<path id="Vector_53" d="M170.695 693.433C170.695 693.433 170.946 693.433 171.297 693.283C176.867 692.078 218.871 683.397 246.321 689.77C246.572 689.77 246.823 689.87 247.074 689.921" stroke="var(--stroke-0, #294485)" stroke-width="2.00733" stroke-miterlimit="10"/>
<path id="Vector_54" d="M200.654 33.6732C200.654 33.6732 213.652 58.263 209.487 60.722C209.487 60.722 204.87 67.9484 194.281 63.7832C194.281 63.7832 188.008 59.4172 185.549 60.9729" stroke="var(--stroke-0, #294485)" stroke-width="2.00733" stroke-miterlimit="10"/>
<path id="Vector_55" d="M131.953 79.5908C131.953 79.5908 131.953 79.5908 132.004 79.6912C133.108 81.6483 151.224 113.264 184.646 115.121" stroke="var(--stroke-0, #294485)" stroke-width="2.00733" stroke-miterlimit="10"/>
</g>
</svg>
