<svg preserveAspectRatio="xMidYMid meet" viewBox="0 0 293.817 960.433" fill="none" xmlns="http://www.w3.org/2000/svg">
<g id="Group">
<path id="Vector" d="M159.052 181.815L160.959 170.172C160.959 170.172 173.003 168.817 183.692 162.795C186.954 160.938 190.166 158.68 192.776 155.87C195.485 155.468 198.296 154.716 201.106 153.461C201.106 153.461 280.998 189.392 282.754 201.637C282.754 201.637 307.645 252.272 282.754 361.019C282.754 361.019 282.905 367.242 280.747 371.758C280.747 371.758 282.905 378.332 279.141 383.15L272.567 390.025L269.305 393.939C269.305 393.939 262.982 403.073 257.111 401.919C257.111 401.919 257.111 399.159 256.408 395.094C254.401 384.053 246.572 363.227 216.613 359.915C214.806 359.714 212.999 359.564 211.042 359.514V361.27C209.888 354.144 216.512 346.767 216.512 346.767L217.566 344.81C219.573 342.1 221.48 338.336 225.595 337.784C253.046 334.071 266.997 351.585 267.8 352.588C255.956 328.651 225.294 333.719 225.294 333.719C219.072 261.255 254.1 210.871 256.107 208.06C253.648 210.62 218.469 249.512 217.817 330.859C217.817 330.859 199.751 339.892 204.518 362.976L180.681 389.523C163.368 402.621 144.85 414.565 138.026 411.604C138.026 411.604 120.813 401.618 110.927 404.578L110.726 404.879C105.557 401.618 100.037 399.008 98.732 398.857C97.628 398.707 93.4628 399.159 89.2976 400.012V399.861C80.3147 332.465 107.765 181.764 107.765 181.764H158.902L159.052 181.815ZM190.618 201.637C190.618 199.429 188.811 197.622 186.553 197.622C184.295 197.622 182.538 199.429 182.538 201.637C182.538 203.845 184.345 205.702 186.553 205.702C188.761 205.702 190.618 203.895 190.618 201.637ZM182.538 245.598C182.538 243.339 180.732 241.533 178.473 241.533C176.215 241.533 174.408 243.339 174.408 245.598C174.408 247.856 176.215 249.662 178.473 249.662C180.732 249.662 182.538 247.856 182.538 245.598ZM175.663 297.286C175.663 294.777 173.606 292.72 171.096 292.72C168.587 292.72 166.53 294.777 166.53 297.286C166.53 299.796 168.587 301.853 171.096 301.853C173.606 301.853 175.663 299.796 175.663 297.286ZM168.587 348.925C168.587 346.667 166.781 344.91 164.573 344.91C162.364 344.91 160.558 346.717 160.558 348.925C160.558 351.133 162.364 352.94 164.573 352.94C166.781 352.94 168.587 351.133 168.587 348.925ZM123.121 199.479C123.121 197.171 121.264 195.314 118.956 195.314C116.647 195.314 114.791 197.171 114.791 199.479C114.791 201.788 116.698 203.644 118.956 203.644C121.214 203.644 123.121 201.737 123.121 199.479ZM116.196 243.44C116.196 240.73 113.988 238.572 111.278 238.572C108.568 238.572 106.36 240.73 106.36 243.44C106.36 246.15 108.568 248.358 111.278 248.358C113.988 248.358 116.196 246.2 116.196 243.44ZM111.127 295.43C111.127 292.971 109.17 290.963 106.711 290.963C104.252 290.963 102.245 292.92 102.245 295.43C102.245 297.939 104.202 299.896 106.711 299.896C109.22 299.896 111.127 297.889 111.127 295.43ZM106.31 346.065C106.31 343.806 104.503 342 102.295 342C100.087 342 98.2804 343.806 98.2804 346.065C98.2804 348.323 100.087 350.079 102.295 350.079C104.503 350.079 106.31 348.273 106.31 346.065Z" fill="var(--fill-0, #F7F3EA)"/>
<path id="Vector_2" d="M256.458 395.093C257.211 399.158 257.161 401.918 257.161 401.918L257.01 402.069L251.39 398.355C254.601 396.298 256.508 395.093 256.508 395.093H256.458Z" fill="var(--fill-0, #294485)"/>
<path id="Vector_3" d="M239.245 426.759C247.526 494.607 262.932 709.944 262.932 709.944C256.458 711.851 249.934 713.557 243.21 714.962C215.559 720.984 186.402 723.142 158.852 723.142C119.257 723.142 83.0247 718.675 59.5891 714.962C42.5267 712.252 32.2392 709.944 32.2392 709.944C31.4362 656.799 35.6516 599.44 40.7703 550.511C50.3553 557.437 102.345 556.433 102.345 556.433C100.488 553.773 104.854 487.13 104.854 487.13C95.5203 489.488 48.8498 483.767 48.8498 483.767C53.1154 453.005 56.6282 432.48 57.1803 429.369L55.2231 443.42C55.2231 443.42 78.9096 480.104 117.952 474.333C117.952 474.333 147.159 461.135 150.622 460.332C150.622 460.332 238.493 429.118 239.195 426.809L239.245 426.759Z" fill="var(--fill-0, #294485)"/>
<path id="Vector_4" d="M256.458 395.095C256.458 395.095 254.551 396.349 251.339 398.357C247.726 400.665 242.357 404.027 236.134 407.691C221.581 416.322 202.361 427.011 189.112 431.277C189.112 431.277 164.171 439.708 155.088 442.719C153.03 443.371 151.224 444.425 149.618 445.83C146.105 448.891 138.828 454.411 132.004 454.261C134.814 451.451 131.15 448.339 131.15 448.339C120.612 447.737 112.281 444.626 106.059 441.213C117.802 446.683 130.899 446.783 130.899 446.783C137.223 444.224 132.455 440.009 132.455 440.009C108.869 433.334 94.9682 410.551 94.9682 410.551C94.0147 408.644 110.977 420.136 110.977 420.136C114.339 422.093 122.318 419.233 120.411 413.662C119.558 411.053 115.292 407.741 110.776 404.88L110.977 404.579C120.863 401.619 138.076 411.605 138.076 411.605C144.901 414.516 163.368 402.622 180.732 389.524C199.35 375.423 216.663 359.916 216.663 359.916C246.622 363.228 254.451 384.054 256.458 395.095Z" fill="var(--fill-0, #F7F3EA)"/>
<path id="Vector_5" d="M250.035 52.6424C249.131 53.0941 245.97 54.5494 241.353 55.001C237.037 55.5028 231.467 55.1516 225.144 52.542L210.289 46.5702C209.135 46.1186 208.081 45.5665 207.028 44.864C199.55 39.8456 166.479 17.8152 161.361 20.5753L154.235 48.5775C153.883 49.9325 153.131 51.0867 152.027 51.9398L141.037 60.6215L134.111 85.4623L127.888 83.3044L131.702 67.5468C131.702 67.5468 125.781 60.5714 124.175 60.7219C122.569 60.8725 127.086 11.5924 154.335 13.65C154.335 13.65 154.185 5.57044 160.006 4.01476C160.006 4.01476 157.346 6.52393 159.504 8.98291C159.504 8.98291 162.967 1.05394 174.208 9.45885e-05C174.208 9.45885e-05 170.946 2.81036 171.197 4.01476C171.197 4.01476 212.096 -5.87135 238.994 16.3599C238.994 16.3599 232.671 16.41 232.621 17.4137C232.621 17.4137 251.038 25.3929 249.834 30.8127C249.834 30.8127 246.572 31.3145 246.723 31.8163C246.723 31.8163 265.541 42.5555 250.235 52.4417C250.235 52.4417 250.135 52.4918 249.934 52.5922L250.035 52.6424Z" fill="var(--fill-0, #294485)"/>
<path id="Vector_6" d="M236.586 882.925C213.401 878.66 187.858 884.832 187.858 884.832L183.843 883.327V870.831C176.014 865.261 183.843 848.399 183.843 848.399L170.293 740.957C175.864 739.752 217.867 731.07 245.317 737.444C248.178 790.538 239.145 852.514 239.145 852.514C244.063 863.906 237.89 868.824 237.89 868.824V883.126C237.439 883.026 236.987 882.975 236.535 882.875L236.586 882.925Z" fill="var(--fill-0, #294485)"/>
<path id="Vector_7" d="M245.016 934.363L245.468 942.744C240.098 960.81 213.802 960.207 213.802 960.207C189.865 962.315 182.588 948.966 182.588 948.966V937.273C182.588 937.273 186.804 955.641 214.354 951.375C214.354 951.375 233.374 950.371 244.966 934.413L245.016 934.363Z" fill="var(--fill-0, #294485)"/>
<path id="Vector_8" d="M236.586 882.925L245.016 934.363C233.424 950.321 214.405 951.325 214.405 951.325C186.854 955.591 182.638 937.223 182.638 937.223L187.858 884.782C187.858 884.782 213.351 878.659 236.586 882.875V882.925Z" fill="var(--fill-0, #243C6B)"/>
<path id="Vector_9" d="M243.26 714.963C244.214 722.089 244.916 729.667 245.318 737.445C217.867 731.072 175.864 739.754 170.293 740.958L168.035 723.143H158.902C186.402 723.143 215.609 720.985 243.26 714.963Z" fill="var(--fill-0, #243C6B)"/>
<path id="Vector_10" d="M241.303 55.0019C245.92 54.5001 249.081 53.095 249.984 52.6433C249.131 60.8734 245.769 77.8855 232.47 92.4889C237.288 76.4804 241.805 59.8195 241.303 55.0521V55.0019Z" fill="var(--fill-0, #294485)"/>
<path id="Vector_11" d="M219.774 88.8243C219.373 88.6235 218.871 88.5232 218.369 88.5232C216.412 88.5232 214.806 90.129 214.806 92.0862C214.806 94.0433 216.412 95.6492 218.369 95.6492C220.326 95.6492 221.932 94.0433 221.932 92.0862C221.932 90.5807 221.029 89.3261 219.774 88.8243ZM241.303 55.0509C241.805 59.7681 237.288 76.429 232.471 92.4877C232.22 93.1902 232.019 93.943 231.818 94.6957C226.8 111.106 221.731 126.261 221.731 126.261C217.566 142.069 209.336 149.847 201.106 153.46C198.296 154.715 195.435 155.418 192.776 155.869C184.044 157.274 176.918 155.267 176.918 155.267C153.331 150.399 139.079 137.653 131.05 127.365C131.05 127.315 131 127.265 131 127.265C128.742 124.254 126.935 121.544 125.63 119.235C123.372 115.371 122.419 110.955 122.72 106.489L123.121 100.366C97.5778 98.2587 104.854 73.1169 104.854 73.1169C109.12 58.0619 124.275 60.7718 124.275 60.7718C125.881 60.6212 131.803 67.5967 131.803 67.5967L127.989 83.3543L134.212 85.5122L141.137 60.6714L152.127 51.9897C153.231 51.1366 153.984 49.9322 154.335 48.6274L161.461 20.6251C166.58 17.8651 199.651 39.8955 207.128 44.9139C208.182 45.6164 209.236 46.1685 210.39 46.6201L225.244 52.5919C231.517 55.2015 237.138 55.5026 241.453 55.0509H241.303ZM234.327 79.5404C235.08 77.6334 234.127 75.4755 232.22 74.7228L214.204 67.5967C212.297 66.844 210.139 67.7975 209.336 69.7044L209.135 70.2564C208.383 72.1634 209.336 74.3213 211.243 75.074L229.259 82.2001C231.166 82.9528 233.324 81.9993 234.076 80.0924L234.327 79.5404ZM192.474 64.2344C192.776 62.0264 191.32 59.9689 189.112 59.6678L166.178 56.1549C166.178 56.1549 165.777 56.1549 165.576 56.1549C163.619 56.1549 161.863 57.5601 161.562 59.5674C161.21 61.7755 162.716 63.833 164.924 64.1843L187.858 67.6971C187.858 67.6971 188.259 67.6971 188.46 67.6971C190.417 67.6971 192.123 66.292 192.474 64.2846V64.2344ZM179.427 79.8415C179.427 77.7839 177.721 76.0777 175.663 76.0777C173.606 76.0777 171.899 77.7839 171.899 79.8415C171.899 81.899 173.606 83.6052 175.663 83.6052C177.721 83.6052 179.427 81.899 179.427 79.8415ZM124.727 81.4473C125.731 74.6726 120.562 69.4535 120.562 69.4535C113.436 64.9872 112.783 71.8121 112.783 71.8121C116.447 68.9015 118.856 76.8305 118.856 76.8305C117.802 76.8305 116.748 78.085 115.945 79.4902C114.59 81.8488 114.339 84.7594 115.594 87.1682C116.949 89.6774 118.856 89.7276 118.856 89.7276C115.393 80.7949 124.777 81.3971 124.777 81.3971L124.727 81.4473Z" fill="var(--fill-0, #F7F3EA)"/>
<path id="Vector_12" d="M231.818 94.6968C231.818 94.6968 245.719 98.0591 238.743 113.014C238.743 113.014 233.223 125.008 221.681 126.312C221.681 126.312 226.8 111.157 231.768 94.747L231.818 94.6968ZM234.528 107.544C235.783 100.819 229.961 103.228 229.961 103.228L226.147 115.222C230.664 118.132 234.528 107.544 234.528 107.544Z" fill="var(--fill-0, #F7F3EA)"/>
<path id="Vector_13" d="M239.245 426.708C238.543 429.067 150.672 460.281 150.672 460.281C147.209 461.084 118.002 474.282 118.002 474.282C78.9597 480.053 55.2732 443.369 55.2732 443.369L57.2303 429.318V428.917H57.2805C58.5853 430.221 59.6391 431.275 60.4421 432.028C61.2952 432.931 61.8974 434.085 62.1985 435.29C67.819 457.772 94.1151 466.052 97.8286 467.106C98.0796 467.156 98.3807 467.257 98.6818 467.257C121.164 470.669 116.848 463.643 116.848 463.643C105.306 464.145 97.9792 461.586 93.4627 458.725C102.596 463.493 117.049 462.991 117.049 462.991C128.39 463.694 126.032 457.822 126.032 457.822C120.511 457.32 115.694 456.467 111.529 455.363C120.762 457.069 128.44 456.266 128.44 456.266C130.147 455.664 131.251 454.962 131.953 454.209C138.778 454.359 146.055 448.839 149.568 445.778C151.174 444.373 153.03 443.319 155.038 442.667C164.171 439.606 189.062 431.225 189.062 431.225C202.31 426.959 221.531 416.27 236.084 407.639C236.937 410.198 237.991 416.923 239.145 426.658L239.245 426.708Z" fill="var(--fill-0, #243C6B)"/>
<path id="Vector_14" d="M217.867 330.81C218.57 249.463 253.748 210.57 256.157 208.011C254.15 210.821 219.172 261.256 225.344 333.67C225.344 333.67 256.006 328.602 267.85 352.539C267.047 351.535 253.096 334.021 225.646 337.735C221.48 338.287 219.624 342.001 217.616 344.761L216.562 346.718C216.562 346.718 209.888 354.095 211.092 361.221V363.328L180.731 389.474L204.569 362.927C199.751 339.843 217.867 330.81 217.867 330.81Z" fill="var(--fill-0, #294485)"/>
<path id="Vector_15" d="M230.012 103.227C230.012 103.227 235.783 100.818 234.578 107.543C234.578 107.543 230.714 118.081 226.198 115.221L230.012 103.227Z" fill="var(--fill-0, #294485)"/>
<path id="Vector_16" d="M232.22 74.7224C234.127 75.4752 235.08 77.6331 234.327 79.54L234.076 80.092C233.324 81.999 231.166 82.9525 229.259 82.1997L211.243 75.0737C209.336 74.321 208.383 72.1631 209.135 70.2561L209.336 69.7041C210.139 67.7971 212.297 66.8436 214.204 67.5964L232.22 74.7224Z" fill="var(--fill-0, #294485)"/>
<path id="Vector_17" d="M219.774 88.8254C221.029 89.3272 221.932 90.632 221.932 92.0873C221.932 94.0445 220.326 95.6503 218.369 95.6503C216.412 95.6503 214.806 94.0445 214.806 92.0873C214.806 90.1302 216.412 88.5243 218.369 88.5243C218.871 88.5243 219.323 88.6247 219.774 88.8254Z" fill="var(--fill-0, #294485)"/>
<path id="Vector_18" d="M211.092 363.327L211.544 362.925C211.343 362.373 211.193 361.771 211.092 361.219V359.463C213.05 359.513 214.906 359.714 216.663 359.864C216.663 359.864 199.35 375.371 180.731 389.472L211.092 363.327Z" fill="var(--fill-0, #294485)"/>
<path id="Vector_19" d="M189.112 59.6691C191.32 59.9702 192.826 62.0277 192.475 64.2358C192.173 66.2431 190.417 67.6482 188.46 67.6482C188.209 67.6482 188.058 67.6482 187.858 67.6482L164.924 64.1354C162.716 63.7841 161.21 61.7266 161.562 59.5185C161.863 57.5112 163.619 56.1061 165.576 56.1061C165.777 56.1061 165.978 56.1061 166.178 56.1061L189.112 59.6189V59.6691Z" fill="var(--fill-0, #294485)"/>
<path id="Vector_20" d="M176.868 155.218C176.868 155.218 183.994 157.275 192.725 155.82C190.116 158.63 186.904 160.939 183.642 162.745C150.22 160.889 132.104 129.273 131 127.316C139.029 137.604 153.281 150.35 176.868 155.218Z" fill="var(--fill-0, #294485)"/>
<path id="Vector_21" d="M186.553 197.621C188.811 197.621 190.618 199.428 190.618 201.636C190.618 203.844 188.811 205.701 186.553 205.701C184.295 205.701 182.538 203.894 182.538 201.636C182.538 199.378 184.345 197.621 186.553 197.621Z" fill="var(--fill-0, #294485)"/>
<path id="Vector_22" d="M178.423 241.532C180.681 241.532 182.488 243.338 182.488 245.597C182.488 247.855 180.681 249.661 178.423 249.661C176.165 249.661 174.358 247.855 174.358 245.597C174.358 243.338 176.165 241.532 178.423 241.532Z" fill="var(--fill-0, #294485)"/>
<path id="Vector_23" d="M175.663 83.6061C177.742 83.6061 179.427 81.921 179.427 79.8423C179.427 77.7637 177.742 76.0786 175.663 76.0786C173.584 76.0786 171.899 77.7637 171.899 79.8423C171.899 81.921 173.584 83.6061 175.663 83.6061Z" fill="var(--fill-0, #294485)"/>
<path id="Vector_24" d="M183.692 162.794C173.003 168.816 160.959 170.17 160.959 170.17L159.052 181.813H144.8L143.546 169.618C129.545 165.002 124.024 156.37 124.024 156.37L124.426 146.183L125.58 119.234C126.935 121.543 128.691 124.303 130.95 127.264C130.95 127.264 130.95 127.264 131 127.364C132.104 129.321 150.22 160.937 183.642 162.794H183.692Z" fill="var(--fill-0, #F7F3EA)"/>
<path id="Vector_25" d="M171.096 301.853C173.618 301.853 175.663 299.809 175.663 297.287C175.663 294.764 173.618 292.72 171.096 292.72C168.574 292.72 166.53 294.764 166.53 297.287C166.53 299.809 168.574 301.853 171.096 301.853Z" fill="var(--fill-0, #294485)"/>
<path id="Vector_26" d="M164.573 352.939C166.79 352.939 168.587 351.142 168.587 348.924C168.587 346.707 166.79 344.91 164.573 344.91C162.355 344.91 160.558 346.707 160.558 348.924C160.558 351.142 162.355 352.939 164.573 352.939Z" fill="var(--fill-0, #294485)"/>
<path id="Vector_27" d="M158.902 723.142H134.964C136.47 728.059 137.423 734.583 137.975 742.111C109.923 730.87 61.8472 734.884 61.8472 734.884L59.6893 715.012C83.125 718.725 119.357 723.142 158.952 723.142H158.902Z" fill="var(--fill-0, #243C6B)"/>
<path id="Vector_28" d="M144.8 181.813H107.916C107.916 181.813 80.4652 332.514 89.3979 399.91V400.061C87.9927 400.362 86.5374 400.663 85.2327 401.064C82.0711 401.968 78.759 400.462 77.3539 397.552L65.1091 372.259C64.808 369.098 50.3051 211.271 50.3051 222.261L51.5596 327.445C38.512 318.312 19.9442 328.6 19.9442 328.6C13.3701 332.113 8.80346 335.776 5.74227 339.289L39.4153 204.145C39.4153 204.145 45.1362 187.986 66.6648 176.895L118.253 156.471V149.746C118.253 153.159 124.075 156.471 124.075 156.471C124.075 156.471 129.595 165.052 143.596 169.719L144.85 181.914L144.8 181.813Z" fill="var(--fill-0, #F7F3EA)"/>
<path id="Vector_29" d="M137.975 742.06C140.886 781.805 132.505 848.85 132.505 848.85C137.975 856.98 132.505 863.403 132.505 863.403V875.949L131.151 876.451C110.977 883.477 81.8705 876.15 73.2891 873.691C71.6833 873.239 70.78 872.938 70.78 872.938C69.6258 870.58 73.4899 856.629 73.4899 856.629C67.4177 849.603 73.4899 841.172 73.4899 841.172L61.8473 734.834C61.8473 734.834 109.873 730.819 137.975 742.06Z" fill="var(--fill-0, #294485)"/>
<path id="Vector_30" d="M135.617 903.902V919.409L108.066 928.091V918.907C107.564 918.907 106.962 919.108 106.26 919.359L104.603 914.491L133.559 904.605V904.756L135.617 903.953V903.902Z" fill="var(--fill-0, #294485)"/>
<path id="Vector_31" d="M131.151 876.452C135.316 883.88 133.76 902.799 133.609 904.605L104.654 914.491L103.299 914.943C96.9757 916.9 83.0749 926.535 83.0749 926.535C77.4042 932.457 63.4532 935.769 63.4532 935.769C63.4532 935.769 21.1487 945.204 10.9615 932.005C10.7105 914.542 26.3677 912.233 26.3677 912.233C28.9773 912.484 47.244 902.648 47.244 902.648C55.3235 900.29 73.2891 873.692 73.2891 873.692C81.8705 876.151 110.977 883.478 131.151 876.452Z" fill="var(--fill-0, #243C6B)"/>
<path id="Vector_32" d="M89.2473 444.173C95.3697 450.847 104.001 453.958 111.529 455.414C98.3305 452.001 91.6561 446.531 89.2473 444.173ZM93.011 430.974C96.3733 435.591 101.141 438.903 106.109 441.162C112.332 444.624 120.662 447.685 131.201 448.288C131.201 448.288 134.864 451.399 132.054 454.209C131.351 454.962 130.247 455.614 128.541 456.267C128.541 456.267 120.863 457.07 111.629 455.363C115.794 456.468 120.612 457.321 126.132 457.822C126.132 457.822 128.491 463.744 117.149 462.991C117.149 462.991 102.747 463.493 93.5631 458.726C89.3477 456.066 87.5411 453.155 87.0392 452.252C88.1934 455.113 90.6022 457.22 93.5631 458.726C98.0796 461.586 105.406 464.146 116.948 463.644C116.948 463.644 121.264 470.669 98.7821 467.257C98.481 467.257 98.1799 467.157 97.929 467.106C94.2154 466.053 67.9194 457.772 62.2989 435.29C61.9978 434.086 61.4457 432.932 60.5424 432.028C59.7395 431.225 58.6857 430.222 57.3809 428.867C45.1863 416.622 12.7679 382.849 14.2232 374.217C21.3493 346.215 53.5168 352.588 53.5168 352.588L56.8791 354.595C58.9366 355.8 60.141 358.008 60.141 360.316C60.141 361.37 60.3919 362.324 60.8435 363.277L65.1091 372.109L77.3538 397.452C78.759 400.413 82.0711 401.918 85.2326 400.965C86.5876 400.563 87.9927 400.262 89.448 399.961C93.6132 399.108 97.7785 398.656 98.8825 398.807C100.187 398.957 105.707 401.567 110.876 404.829C115.393 407.689 119.658 411.052 120.512 413.611C122.418 419.181 114.389 422.092 111.077 420.085C111.077 420.085 94.1151 408.643 95.0686 410.5C95.0686 410.5 108.969 433.283 132.556 439.957C132.556 439.957 137.323 444.122 131 446.732C131 446.732 117.902 446.632 106.159 441.162C98.2803 436.796 93.9143 431.928 93.0612 430.974H93.011Z" fill="var(--fill-0, #F7F3EA)"/>
<path id="Vector_33" d="M120.562 69.5047C120.562 69.5047 125.731 74.6736 124.727 81.4985C124.727 81.4985 115.343 80.8963 118.805 89.829C118.805 89.829 116.898 89.7788 115.543 87.2696C114.289 84.8608 114.54 81.9 115.895 79.5916C116.698 78.1864 117.701 76.9319 118.805 76.9319C118.805 76.9319 116.397 69.0029 112.733 71.9135C112.733 71.9135 113.386 65.0886 120.512 69.5549L120.562 69.5047Z" fill="var(--fill-0, #294485)"/>
<path id="Vector_34" d="M124.426 146.183L124.024 156.371C124.024 156.371 118.203 153.058 118.203 149.646V149.345C118.203 149.345 121.616 146.183 124.476 146.183H124.426Z" fill="var(--fill-0, #294485)"/>
<path id="Vector_35" d="M119.006 195.313C121.315 195.313 123.171 197.17 123.171 199.478C123.171 201.787 121.315 203.643 119.006 203.643C116.698 203.643 114.841 201.736 114.841 199.478C114.841 197.22 116.748 195.313 119.006 195.313Z" fill="var(--fill-0, #294485)"/>
<path id="Vector_36" d="M111.278 238.572C113.988 238.572 116.196 240.73 116.196 243.44C116.196 246.149 113.988 248.357 111.278 248.357C108.568 248.357 106.36 246.2 106.36 243.44C106.36 240.679 108.568 238.572 111.278 238.572Z" fill="var(--fill-0, #294485)"/>
<path id="Vector_37" d="M106.711 290.963C109.17 290.963 111.127 292.92 111.127 295.429C111.127 297.939 109.17 299.896 106.711 299.896C104.252 299.896 102.245 297.888 102.245 295.429C102.245 292.97 104.202 290.963 106.711 290.963Z" fill="var(--fill-0, #294485)"/>
<path id="Vector_38" d="M104.654 914.491L106.31 919.358C101.442 921.265 92.1579 928.492 92.1579 928.492C79.7125 939.181 73.289 940.887 73.289 940.887C26.5683 956.293 8.55253 940.887 8.55253 940.887V932.958L11.0115 932.005C21.1987 945.203 63.5033 935.768 63.5033 935.768C63.5033 935.768 77.404 932.456 83.1249 926.535C83.1249 926.535 97.0257 916.95 103.349 914.942L104.704 914.491H104.654Z" fill="var(--fill-0, #294485)"/>
<path id="Vector_39" d="M102.295 342.05C104.503 342.05 106.31 343.857 106.31 346.115C106.31 348.374 104.503 350.13 102.295 350.13C100.087 350.13 98.2803 348.323 98.2803 346.115C98.2803 343.907 100.087 342.05 102.295 342.05Z" fill="var(--fill-0, #294485)"/>
<path id="Vector_40" d="M104.955 487.129C104.955 487.129 100.589 553.772 102.446 556.432C102.446 556.432 50.4556 557.486 40.8706 550.51C43.4801 525.469 46.3908 502.686 49.0003 483.767C49.0003 483.767 95.6708 489.487 105.005 487.129H104.955Z" fill="var(--fill-0, #243C6B)"/>
<path id="Vector_41" d="M65.059 372.161L60.7934 363.328C60.3418 362.375 60.0908 361.421 60.0908 360.367C60.0908 358.009 58.8363 355.801 56.8289 354.647L53.4666 352.639C57.0798 347.521 54.6209 342.653 52.8644 340.294C52.0113 339.14 51.5597 337.835 51.5597 336.38V327.397L50.3051 222.213C50.3051 211.223 64.8081 369.049 65.1092 372.211L65.059 372.161Z" fill="var(--fill-0, #294485)"/>
<path id="Vector_42" d="M52.8645 340.244C54.6209 342.652 57.13 347.47 53.4667 352.589C53.4667 352.589 21.2992 346.266 14.1731 374.218C13.7717 375.924 13.3702 377.781 13.1695 379.788C13.0189 381.043 11.664 381.645 10.6603 380.892C7.59911 378.483 2.63096 373.314 3.18298 365.335C3.28335 364.181 3.03243 363.077 2.48041 362.073C0.523264 358.661 -3.24049 349.427 5.69215 339.24C8.75333 335.727 13.32 332.114 19.894 328.551C19.894 328.551 38.4619 318.263 51.5095 327.397V330.859V336.379C51.5095 337.785 51.9612 339.14 52.8143 340.294L52.8645 340.244Z" fill="var(--fill-0, #F7F3EA)"/>
</g>
</svg>
