<svg preserveAspectRatio="none" width="100%" height="100%" overflow="visible" style="display: block;" viewBox="0 0 205.888 235.624" fill="none" xmlns="http://www.w3.org/2000/svg">
<g id="fusillo">
<g id="Vector">
<path d="M158.695 30.9444L194.89 46.5198C199.516 48.5089 201.808 53.7331 200.152 58.4794C198.526 63.1352 193.632 65.8041 188.835 64.6433L179.55 62.3878" fill="var(--fill-0, #F8F3E9)"/>
<path d="M158.695 30.9444L194.89 46.5198C199.516 48.5089 201.808 53.7331 200.152 58.4794C198.526 63.1352 193.632 65.8041 188.835 64.6433L179.55 62.3878" stroke="var(--stroke-0, #2A4484)" stroke-width="4" stroke-linejoin="round"/>
</g>
<g id="Group">
<path id="Vector_2" d="M149.072 87.7224L119.551 46.6767C115.354 40.8416 115.513 32.9368 119.939 27.2779L127.115 18.1043C133.914 9.41178 147.228 9.92801 153.318 19.1244L181.371 61.4016C185.087 66.997 184.95 74.3115 181.036 79.7617L175.336 87.7096C168.89 96.6975 155.529 96.704 149.072 87.7224Z" fill="var(--fill-0, #F8F3E9)" stroke="var(--stroke-0, #2A4484)" stroke-width="4" stroke-linejoin="round"/>
<g id="Vector_3">
<path d="M152.414 42.5904L164.893 62.1173C167.924 66.8537 168.653 72.7086 166.898 78.0502L165.582 82.0419" fill="var(--fill-0, #F8F3E9)"/>
<path d="M152.414 42.5904L164.893 62.1173C167.924 66.8537 168.653 72.7086 166.898 78.0502L165.582 82.0419" stroke="var(--stroke-0, #2A4484)" stroke-width="4" stroke-linejoin="round"/>
</g>
</g>
<g id="Group_2">
<path id="Vector_4" d="M124.481 118.392L94.9601 77.3461C90.7627 71.511 90.9223 63.6062 95.348 57.9473L102.523 48.7738C109.317 40.0893 122.631 40.6055 128.727 49.7938L156.78 92.071C160.496 97.6665 160.359 104.981 156.444 110.431L150.745 118.379C144.299 127.367 130.938 127.373 124.481 118.392Z" fill="var(--fill-0, #F8F3E9)" stroke="var(--stroke-0, #2A4484)" stroke-width="4" stroke-linejoin="round"/>
<g id="Vector_5">
<path d="M127.823 73.2598L140.302 92.7867C143.333 97.5231 144.062 103.378 142.307 108.72L140.991 112.711" fill="var(--fill-0, #F8F3E9)"/>
<path d="M127.823 73.2598L140.302 92.7867C143.333 97.5231 144.062 103.378 142.307 108.72L140.991 112.711" stroke="var(--stroke-0, #2A4484)" stroke-width="4" stroke-linejoin="round"/>
</g>
</g>
<g id="Group_3">
<path id="Vector_6" d="M101.347 150.1L71.8269 109.054C67.6294 103.219 67.7891 95.3145 72.2147 89.6556L79.3902 80.482C86.1841 71.7975 99.4981 72.3138 105.594 81.5021L133.647 123.779C137.363 129.375 137.225 136.689 133.311 142.139L127.612 150.087C121.166 159.075 107.805 159.082 101.347 150.1Z" fill="var(--fill-0, #F8F3E9)" stroke="var(--stroke-0, #2A4484)" stroke-width="4" stroke-linejoin="round"/>
<g id="Vector_7">
<path d="M104.69 104.968L117.169 124.495C120.2 129.231 120.929 135.086 119.173 140.428L117.858 144.42" fill="var(--fill-0, #F8F3E9)"/>
<path d="M104.69 104.968L117.169 124.495C120.2 129.231 120.929 135.086 119.173 140.428L117.858 144.42" stroke="var(--stroke-0, #2A4484)" stroke-width="4" stroke-linejoin="round"/>
</g>
</g>
<path id="Vector_8" d="M78.2142 181.808L48.6936 140.763C44.4961 134.928 44.6558 127.023 49.0814 121.364L56.2569 112.19C63.0508 103.506 76.3648 104.022 82.4607 113.21L110.513 155.488C114.23 161.083 114.092 168.397 110.178 173.848L104.478 181.796C98.0324 190.783 84.6713 190.79 78.2142 181.808Z" fill="var(--fill-0, #F8F3E9)" stroke="var(--stroke-0, #2A4484)" stroke-width="4" stroke-linejoin="round"/>
<g id="Vector_9">
<path d="M48.5388 202.802L11.5174 189.31C6.79624 187.586 4.19898 182.51 5.5811 177.663C6.93659 172.921 11.6721 169.976 16.5283 170.87L25.9218 172.586" fill="var(--fill-0, #F8F3E9)"/>
<path d="M48.5388 202.802L11.5174 189.31C6.79624 187.586 4.19898 182.51 5.5811 177.663C6.93659 172.921 11.6721 169.976 16.5283 170.87L25.9218 172.586" stroke="var(--stroke-0, #2A4484)" stroke-width="4" stroke-linejoin="round"/>
</g>
<g id="Vector_10">
<path d="M83.1419 134.503L97.4304 156.86C99.3155 159.808 99.7776 163.45 98.6794 166.771L96.3159 173.947" fill="var(--fill-0, #F8F3E9)"/>
<path d="M83.1419 134.503L97.4304 156.86C99.3155 159.808 99.7776 163.45 98.6794 166.771L96.3159 173.947" stroke="var(--stroke-0, #2A4484)" stroke-width="4" stroke-linejoin="round"/>
</g>
<g id="Group_4">
<path id="Vector_11" d="M55.0691 213.533L25.5485 172.487C21.3511 166.652 21.5107 158.747 25.9363 153.088L33.1118 143.915C39.9057 135.23 53.2197 135.746 59.3156 144.935L87.3683 187.212C91.0845 192.807 90.9471 200.122 87.0327 205.572L81.3332 213.52C74.8873 222.508 61.5263 222.514 55.0691 213.533Z" fill="var(--fill-0, #F8F3E9)" stroke="var(--stroke-0, #2A4484)" stroke-width="4" stroke-linejoin="round"/>
<g id="Vector_12">
<path d="M58.4114 168.401L70.8903 187.928C73.9212 192.664 74.6505 198.519 72.8949 203.861L71.5795 207.852" fill="var(--fill-0, #F8F3E9)"/>
<path d="M58.4114 168.401L70.8903 187.928C73.9212 192.664 74.6505 198.519 72.8949 203.861L71.5795 207.852" stroke="var(--stroke-0, #2A4484)" stroke-width="4" stroke-linejoin="round"/>
</g>
</g>
</g>
</svg>
