<svg preserveAspectRatio="none" width="100%" height="100%" overflow="visible" style="display: block;" viewBox="0 0 302.008 313.605" fill="none" xmlns="http://www.w3.org/2000/svg">
<g id="pizza">
<path id="Vector" d="M20.3214 139.03L217.833 256.564C226.295 261.598 236.497 253.509 233.524 244.115L163.666 23.7378C161.9 18.1731 156.004 15.0545 150.397 16.7009C130.077 22.7028 100.023 34.6994 70.3043 59.3238C42.8766 82.0404 26.1374 106.892 16.3899 124.696C13.6159 129.75 15.3734 136.083 20.3214 139.03Z" fill="var(--fill-0, #F8F3E9)" stroke="var(--stroke-0, #2A4484)" stroke-width="4" stroke-miterlimit="10"/>
<path id="Vector_2" d="M38.0611 149.653L218.051 256.762C226.347 261.697 236.352 253.763 233.434 244.567L169.741 43.6323C152.566 47.8447 121.045 57.9673 89.9337 83.7328C61.1589 107.568 45.6862 134.069 38.0611 149.653Z" stroke="var(--stroke-0, #2A4484)" stroke-width="4" stroke-miterlimit="10"/>
<path id="Vector_3" d="M199.303 176.393C204.974 171.953 205.972 163.758 201.533 158.087C197.093 152.416 188.897 151.418 183.227 155.857C177.556 160.297 176.558 168.493 180.997 174.163C185.436 179.834 193.632 180.832 199.303 176.393Z" fill="var(--fill-0, #F8F3E9)" stroke="var(--stroke-0, #2A4484)" stroke-width="4" stroke-miterlimit="10"/>
<path id="Vector_4" d="M160.091 85.311C164.123 82.1551 164.832 76.3287 161.676 72.2974C158.52 68.2661 152.694 67.5565 148.663 70.7124C144.632 73.8683 143.922 79.6947 147.078 83.726C150.234 87.7573 156.06 88.4669 160.091 85.311Z" fill="var(--fill-0, #F8F3E9)" stroke="var(--stroke-0, #2A4484)" stroke-width="4" stroke-miterlimit="10"/>
<path id="Vector_5" d="M163.952 121.519C160.381 104.223 143.465 93.0948 126.163 96.6577C108.867 100.228 97.739 117.144 101.302 134.446L121.352 130.306L125.232 149.1C125.445 151.334 126.26 153.528 127.746 155.425C131.87 160.693 139.493 161.622 144.76 157.498C148.871 154.28 150.325 148.951 148.823 144.259L144.945 125.451L163.95 121.533L163.952 121.519Z" fill="var(--fill-0, #F8F3E9)" stroke="var(--stroke-0, #2A4484)" stroke-width="4" stroke-miterlimit="10"/>
<path id="Vector_6" d="M157.549 220.765C165.623 211.141 166.164 196.875 158.113 186.592C148.873 174.788 131.81 172.703 119.999 181.949C116.054 185.038 113.2 189 111.487 193.35L157.542 220.757L157.549 220.765Z" fill="var(--fill-0, #F8F3E9)" stroke="var(--stroke-0, #2A4484)" stroke-width="4" stroke-miterlimit="10"/>
</g>
</svg>
