<svg width="5928" height="876" viewBox="0 0 5928 876" fill="none" xmlns="http://www.w3.org/2000/svg">
<path d="M3290 266.43H3344.3C3344.3 266.43 3355.06 265.057 3355.54 278.369C3356.01 291.681 3355.54 294.097 3355.54 294.097" stroke="#8C98B7" stroke-miterlimit="10"/>
<path d="M3414.69 266.667C3414.69 266.667 3389.07 263.707 3389.4 277.066" stroke="#8C98B7" stroke-miterlimit="10"/>
<path d="M3398.15 207C3398.15 207 3389.4 231.184 3398.15 231.184" stroke="#8C98B7" stroke-miterlimit="10"/>
<path d="M3328.87 250.963H3436.31" stroke="#8C98B7" stroke-miterlimit="10"/>
<path d="M3420.62 231.185C3420.62 231.185 3415 250.939 3420.62 250.939" stroke="#8C98B7" stroke-miterlimit="10"/>
<path d="M966.394 71V452.414" stroke="#8C98B7" stroke-miterlimit="10"/>
<path d="M977.792 453.33H954.547C952.588 453.33 951 454.948 951 456.944V499.398C951 501.394 952.588 503.012 954.547 503.012H977.792C979.751 503.012 981.339 501.394 981.339 499.398V456.944C981.339 454.948 979.751 453.33 977.792 453.33Z" fill="#F7F3EA" stroke="#8C98B7" stroke-miterlimit="10"/>
<path d="M966.394 475.328C969.933 475.328 972.802 472.404 972.802 468.798C972.802 465.192 969.933 462.269 966.394 462.269C962.855 462.269 959.986 465.192 959.986 468.798C959.986 472.404 962.855 475.328 966.394 475.328Z" fill="#F7F3EA" stroke="#8C98B7" stroke-miterlimit="10"/>
<path d="M966.394 495.085C969.933 495.085 972.802 492.162 972.802 488.555C972.802 484.949 969.933 482.026 966.394 482.026C962.855 482.026 959.986 484.949 959.986 488.555C959.986 492.162 962.855 495.085 966.394 495.085Z" fill="#F7F3EA" stroke="#8C98B7" stroke-miterlimit="10"/>
<path d="M2091.79 118.571H1770.59C1768.54 118.571 1766.87 120.232 1766.87 122.281V744.29C1766.87 746.339 1768.54 748 1770.59 748H2091.79C2093.85 748 2095.51 746.339 2095.51 744.29V122.281C2095.51 120.232 2093.85 118.571 2091.79 118.571Z" fill="#F7F3EA" stroke="#8C98B7" stroke-miterlimit="10"/>
<path d="M2120.5 79H1742.72C1740.67 79 1739 80.6609 1739 82.7098V114.861C1739 116.91 1740.67 118.571 1742.72 118.571H2120.5C2122.56 118.571 2124.23 116.91 2124.23 114.861V82.7098C2124.23 80.6609 2122.56 79 2120.5 79Z" fill="#F7F3EA" stroke="#8C98B7" stroke-miterlimit="10"/>
<path d="M721 514.43H756.102C756.102 514.43 763.07 513.057 763.355 526.369C763.639 539.681 763.355 542.097 763.355 542.097" stroke="#8C98B7" stroke-miterlimit="10"/>
<path d="M874.99 514.431H756.078" stroke="#8C98B7" stroke-miterlimit="10"/>
<path d="M801.586 514.667C801.586 514.667 785.018 511.707 785.255 525.066" stroke="#8C98B7" stroke-miterlimit="10"/>
<path d="M722.706 479.208H841.31" stroke="#8C98B7" stroke-miterlimit="10"/>
<path d="M790.896 455C790.896 455 785.255 479.184 790.896 479.184" stroke="#8C98B7" stroke-miterlimit="10"/>
<path d="M763.497 458.221C763.497 458.221 765.488 479.184 759.823 479.184" stroke="#8C98B7" stroke-miterlimit="10"/>
<path d="M746.1 498.963H815.546" stroke="#8C98B7" stroke-miterlimit="10"/>
<path d="M805.402 479.208C805.402 479.208 801.775 498.963 805.402 498.963" stroke="#8C98B7" stroke-miterlimit="10"/>
<path d="M2225 240.43H2260.1C2260.1 240.43 2267.07 239.057 2267.35 252.369C2267.64 265.681 2267.35 268.097 2267.35 268.097" stroke="#8C98B7" stroke-miterlimit="10"/>
<path d="M2378.99 240.431H2260.08" stroke="#8C98B7" stroke-miterlimit="10"/>
<path d="M2305.59 240.667C2305.59 240.667 2289.02 237.707 2289.26 251.066" stroke="#8C98B7" stroke-miterlimit="10"/>
<path d="M2226.71 205.208H2345.31" stroke="#8C98B7" stroke-miterlimit="10"/>
<path d="M2294.9 181C2294.9 181 2289.26 205.184 2294.9 205.184" stroke="#8C98B7" stroke-miterlimit="10"/>
<path d="M2267.5 184.221C2267.5 184.221 2269.49 205.184 2263.82 205.184" stroke="#8C98B7" stroke-miterlimit="10"/>
<path d="M2250.1 224.963H2319.55" stroke="#8C98B7" stroke-miterlimit="10"/>
<path d="M2309.4 205.208C2309.4 205.208 2305.78 224.963 2309.4 224.963" stroke="#8C98B7" stroke-miterlimit="10"/>
<path d="M2539.26 77L2539.26 333.475" stroke="#8C98B7" stroke-miterlimit="10"/>
<path d="M2550.85 333.321H2527.56C2525.59 333.321 2524 334.897 2524 336.84V378.169C2524 380.112 2525.59 381.688 2527.56 381.688H2550.85C2552.82 381.688 2554.41 380.112 2554.41 378.169V336.84C2554.41 334.897 2552.82 333.321 2550.85 333.321Z" fill="#F7F3EA" stroke="#8C98B7" stroke-miterlimit="10"/>
<path d="M2539.45 354.713C2543 354.713 2545.88 351.867 2545.88 348.357C2545.88 344.846 2543 342 2539.45 342C2535.91 342 2533.03 344.846 2533.03 348.357C2533.03 351.867 2535.91 354.713 2539.45 354.713Z" fill="#F7F3EA" stroke="#8C98B7" stroke-miterlimit="10"/>
<path d="M2539.45 373.971C2543 373.971 2545.88 371.125 2545.88 367.614C2545.88 364.103 2543 361.257 2539.45 361.257C2535.91 361.257 2533.03 364.103 2533.03 367.614C2533.03 371.125 2535.91 373.971 2539.45 373.971Z" fill="#F7F3EA" stroke="#8C98B7" stroke-miterlimit="10"/>
<path d="M2743 482.701H2800.33" stroke="#8C98B7" stroke-miterlimit="10"/>
<path d="M2775.96 471C2775.96 471 2773.23 482.689 2775.96 482.689" stroke="#8C98B7" stroke-miterlimit="10"/>
<path d="M2762.72 472.557C2762.72 472.557 2763.68 482.689 2760.94 482.689" stroke="#8C98B7" stroke-miterlimit="10"/>
<path d="M2782.97 482.701C2782.97 482.701 2781.22 492.249 2782.97 492.249" stroke="#8C98B7" stroke-miterlimit="10"/>
<path d="M3661.38 41H3661.23C3659.14 41 3657.44 41.5851 3657.44 42.3068V202.962C3657.44 203.684 3659.14 204.269 3661.23 204.269H3661.38C3663.47 204.269 3665.17 203.684 3665.17 202.962V42.3068C3665.17 41.5851 3663.47 41 3661.38 41Z" fill="#F7F3EA" stroke="#8C98B7" stroke-miterlimit="10"/>
<path d="M3661.44 395.702H3661.29C3659.12 395.702 3657.36 397.457 3657.36 399.622V709.793C3657.36 711.958 3659.12 713.713 3661.29 713.713H3661.44C3663.61 713.713 3665.36 711.958 3665.36 709.793V399.622C3665.36 397.457 3663.61 395.702 3661.44 395.702Z" fill="#F7F3EA" stroke="#8C98B7" stroke-miterlimit="10"/>
<path d="M3698.89 41H3698.74C3696.65 41 3694.95 41.5851 3694.95 42.3068V202.962C3694.95 203.684 3696.65 204.269 3698.74 204.269H3698.89C3700.98 204.269 3702.67 203.684 3702.67 202.962V42.3068C3702.67 41.5851 3700.98 41 3698.89 41Z" fill="#F7F3EA" stroke="#8C98B7" stroke-miterlimit="10"/>
<path d="M3698.83 396.643H3698.68C3696.51 396.643 3694.75 398.398 3694.75 400.563V710.734C3694.75 712.899 3696.51 714.653 3698.68 714.653H3698.83C3701 714.653 3702.75 712.899 3702.75 710.734V400.563C3702.75 398.398 3701 396.643 3698.83 396.643Z" fill="#F7F3EA" stroke="#8C98B7" stroke-miterlimit="10"/>
<path d="M3730.89 204.269H3627.92C3625.76 204.269 3624 206.024 3624 208.189V396.643C3624 398.808 3625.76 400.563 3627.92 400.563H3730.89C3733.05 400.563 3734.81 398.808 3734.81 396.643V208.189C3734.81 206.024 3733.05 204.269 3730.89 204.269Z" fill="#F7F3EA" stroke="#8C98B7" stroke-miterlimit="10"/>
<path d="M3676.45 297.19H3687.2L3671.38 318.199L3678.54 300.796H3669.42L3681.52 282.87L3676.45 297.19Z" fill="#8C98B7" stroke="#8C98B7" stroke-miterlimit="10"/>
</svg>
