<svg width="5928" height="876" viewBox="0 0 5928 876" fill="none" xmlns="http://www.w3.org/2000/svg">
<g clip-path="url(#clip0_3259_414)">
<path d="M1191.35 531.352C1188.14 534.644 1185.45 536.828 1183.52 537.396C1183.52 537.396 1181.81 534.956 1179.26 531.352C1177.1 528.316 1174.32 524.428 1171.43 520.512C1164.87 511.602 1157.81 502.522 1156.28 502.522C1156.28 502.522 1162.18 495.967 1170.01 487.426C1173.02 484.134 1176.34 480.559 1179.69 476.955C1185.96 470.23 1192.48 463.42 1197.76 458.17C1197.68 457.631 1197.56 457.063 1197.48 456.524C1196.68 452.069 1196.09 447.699 1195.63 443.414C1189.96 390.465 1206.22 351.731 1206.22 351.731C1206.42 351.845 1206.64 351.93 1206.84 352.015C1209.23 353.179 1211.32 354.285 1213 355.364C1213 355.364 1213.06 355.392 1213.08 355.42C1215.24 356.839 1216.69 358.173 1217 359.336C1219.16 366.941 1228.69 402.638 1228.69 402.638C1228.69 402.638 1236.61 449.203 1234.96 462.256C1234.2 468.357 1225.31 484.503 1214.93 500.252C1206.9 512.425 1198.02 524.371 1191.26 531.352H1191.35Z" fill="#F7F3E9"/>
<path d="M1217 529.535L1218.56 552.406C1218.56 552.406 1214.96 554.109 1208.18 556.294C1189.56 562.281 1146.97 571.958 1089.71 559.841C1086.84 559.245 1083.94 558.564 1080.99 557.855V532.543C1086.1 529.479 1089.71 519.774 1089.71 519.774L1090.02 519.49C1094.98 524.853 1101.17 533.65 1101.17 533.65C1106.39 542.929 1122.08 551.3 1122.08 551.3C1127.81 554.279 1129.49 550.222 1129.63 549.881C1129.66 549.881 1129.72 549.881 1129.74 549.881H1129.77C1136.16 551.782 1136.78 546.902 1136.81 546.107C1137.09 546.192 1137.29 546.192 1137.41 546.107C1139.08 546.306 1143.68 546.447 1143.05 541.283C1147.2 542.702 1148.59 541.283 1148.95 539.552C1149.35 537.651 1148.59 535.579 1146.97 534.53C1146.97 534.53 1151.45 534.473 1156.64 531.266H1179.23C1181.81 534.87 1183.49 537.31 1183.49 537.31C1185.39 536.771 1188.11 534.586 1191.32 531.266L1216.97 529.479L1217 529.535Z" fill="#F7F3E9"/>
<path d="M1215.01 500.223L1217 529.535L1191.35 531.323C1198.1 524.342 1207.01 512.396 1215.01 500.223Z" fill="#2A4385"/>
<path d="M1140.87 754.529C1130.06 758.7 1099.75 750.556 1099.75 750.556C1099.75 750.556 1104.83 661.002 1089.7 559.869C1146.97 571.957 1189.53 562.31 1208.18 556.322C1206.39 556.918 1212.74 758.7 1212.74 758.7C1212.37 758.7 1212.09 758.899 1211.89 759.24C1196.37 768.831 1183.03 763.723 1178.27 761.254C1177.05 760.63 1176.39 760.176 1176.39 760.176C1175.12 683.646 1147.05 582.996 1147.05 582.996C1142.43 587.281 1143.17 753.224 1143.17 753.224C1142.57 753.763 1141.78 754.189 1140.87 754.557V754.529Z" fill="#284485"/>
<path d="M1211.52 767.185C1212.74 769.852 1211.52 774.335 1211.52 774.335V779.812C1211.52 780.692 1211.24 781.571 1210.62 782.167C1208.46 784.097 1208.63 789.63 1208.63 789.63C1207.95 793.574 1200.06 798.228 1200.06 798.228C1176.62 807.762 1167.14 796.27 1167.14 796.27C1165.41 795.05 1165.98 792.581 1166.6 790.964C1167 789.942 1167.2 788.892 1167.14 787.814C1166.92 781.543 1173.61 774.96 1173.61 774.96L1178.24 761.282C1183.01 763.751 1196.34 768.83 1211.86 759.268C1210.64 761.112 1211.52 767.241 1211.52 767.241V767.185Z" fill="#243C6B"/>
<path d="M1206.22 351.646C1206.22 351.646 1206.3 351.646 1206.33 351.675C1206.33 351.675 1190.07 390.408 1195.75 443.358H1179.83C1177.81 396.878 1190.41 345.517 1190.41 345.517L1180.2 341.8C1188.06 344.496 1198.95 348.383 1206.22 351.618V351.646Z" fill="#2A4385"/>
<path d="M1197.56 456.496C1197.65 457.035 1197.73 457.602 1197.85 458.142C1192.57 463.391 1186.04 470.23 1179.77 476.927L1179.29 476.444H1093.11L1085.45 457.744V455.417L1196.8 456.609L1197.56 456.467V456.496Z" fill="#2A4385"/>
<path d="M1197.56 456.495L1196.8 456.637L1085.48 455.446L1085.7 442.847L1097.48 442.988C1097.48 442.988 1097.71 442.875 1097.65 442.761C1095.35 436.32 1097.71 362.344 1097.74 360.925L1103.72 357.633L1103.84 357.577C1105.57 356.668 1107.13 355.902 1108.38 355.306C1108.04 359.96 1102.33 436.661 1106.96 442.364C1107.1 442.534 1107.33 442.591 1107.55 442.591L1166.43 443.244C1166.43 443.244 1167.46 357.747 1179.32 341.487C1179.6 341.572 1179.86 341.658 1180.17 341.771L1190.38 345.488C1190.38 345.488 1177.78 396.849 1179.8 443.329H1195.72C1196.17 447.614 1196.77 451.984 1197.56 456.439V456.495Z" fill="#F7F3EA"/>
<path d="M1170.69 338.649C1177.9 340.863 1194.87 346.339 1206.19 351.674C1198.92 348.439 1188.03 344.552 1180.17 341.856C1179.88 341.742 1179.6 341.657 1179.32 341.572C1175.03 340.125 1171.77 339.047 1170.66 338.678L1170.69 338.649Z" fill="#F7F3E9"/>
<path d="M1179.26 476.472L1179.74 476.955C1176.39 480.558 1173.07 484.134 1170.07 487.425L1098.3 487.794L1097.82 487.993L1093.11 476.472H1179.29H1179.26Z" fill="#F7F3EA"/>
<path d="M1179.26 531.351H1156.67C1158.97 529.933 1161.41 527.89 1163.65 524.938L1171.43 520.483C1174.32 524.399 1177.07 528.287 1179.26 531.323V531.351Z" fill="#2A4385"/>
<path d="M1172.34 286.977C1172.34 286.977 1173.13 291.205 1166.94 289.02C1167.11 287.998 1167.2 286.977 1167.2 285.955V285.671C1167.2 285.671 1167.2 285.501 1167.2 285.444C1170.49 286.324 1172.36 286.977 1172.36 286.977H1172.34Z" fill="#F7F3EA"/>
<path d="M1166.72 278.975C1166.72 278.975 1172.53 279.798 1172.34 286.977C1172.34 286.977 1170.46 286.324 1167.17 285.444C1167.14 283.657 1166.43 281.926 1165.24 280.592C1164.45 279.741 1163.54 278.861 1162.83 278.18C1164.87 278.634 1166.26 278.946 1166.46 278.975H1166.72Z" fill="#F7F3EA"/>
<path d="M1156.3 502.521C1157.84 502.521 1164.9 511.602 1171.46 520.512L1163.68 524.967C1161.44 527.89 1159 529.933 1156.7 531.38C1151.51 534.586 1147.02 534.643 1147.02 534.643C1141.63 531.238 1133.74 522.867 1130.08 518.866C1129.63 518.384 1130.06 517.589 1130.71 517.703C1134.31 518.157 1139.65 516.653 1139.65 516.653C1147 511.261 1141.38 510.325 1141.38 510.325C1140.61 510.268 1137.09 510.07 1135.22 509.984C1138.82 508.736 1143.45 510.892 1143.45 510.892L1156.3 502.578V502.521Z" fill="#ED979B"/>
<path d="M1170.69 338.65C1171.8 339.019 1175.06 340.097 1179.34 341.544C1167.48 357.775 1166.46 443.301 1166.46 443.301L1107.58 442.648C1107.35 442.648 1107.13 442.591 1106.99 442.421C1102.39 436.717 1108.06 360.017 1108.4 355.363C1110.56 354.285 1111.9 353.661 1111.9 353.661C1111.9 353.661 1111.92 353.802 1112.04 354.058C1112.43 358.74 1115.07 381.526 1130.51 393.075C1130.51 393.075 1170.55 342.594 1170.29 338.536C1170.29 338.536 1170.29 338.536 1170.35 338.536C1170.46 338.536 1170.58 338.593 1170.72 338.65H1170.69Z" fill="#2A4385"/>
<path d="M1137.35 364.926C1145.12 362.202 1155.03 355.59 1167.6 342.452C1168.36 341.686 1168.56 340.494 1168.11 339.529L1167.26 337.571C1167.26 337.571 1168.36 337.912 1170.24 338.479C1170.52 342.537 1130.45 393.018 1130.45 393.018C1115.02 381.469 1112.38 358.683 1111.98 354.001C1112.49 355.42 1114.68 360.528 1119.56 363.762C1119.78 363.904 1120.01 364.046 1120.27 364.216C1124.18 366.515 1129.69 367.593 1137.29 364.926H1137.35Z" fill="#F7F3E9"/>
<path d="M1098.27 487.765L1170.04 487.396C1162.18 495.938 1156.3 502.493 1156.3 502.493L1143.45 510.807C1143.45 510.807 1138.8 508.65 1135.22 509.899C1134.96 509.899 1134.74 509.842 1134.45 509.814C1134.06 509.757 1133.69 509.643 1133.32 509.558C1131.53 509.076 1127.33 508.764 1123.05 508.508C1122.99 508.508 1122.93 508.508 1122.88 508.508C1117.46 507.969 1112.04 507.6 1110.96 508.054L1103.1 499.825L1102.33 499.031L1097.79 487.964L1098.27 487.765Z" fill="#2A4385"/>
<path d="M1168.14 339.53C1168.59 340.523 1168.36 341.686 1167.63 342.452C1155.03 355.59 1145.12 362.202 1137.38 364.926L1138.03 353.945C1138.03 353.945 1151.03 348.61 1160.08 336.72C1161.3 335.103 1162.46 333.372 1163.51 331.499C1163.77 331.045 1164.45 331.045 1164.65 331.528L1167.31 337.543L1168.16 339.501L1168.14 339.53Z" fill="#F7F3E9"/>
<path d="M1151.96 299.49L1151.56 294.411L1147.73 288.083C1146.88 286.834 1146.57 285.557 1146.26 283.543L1146.09 281.642C1155.11 282.578 1162.52 284.224 1167.14 285.472C1167.14 285.557 1167.14 285.643 1167.14 285.699V285.983C1167.14 287.005 1167.06 288.026 1166.89 289.048C1166.77 289.814 1166.6 290.552 1166.41 291.289L1164.19 299.036C1162.23 297.561 1159.77 297.419 1159.77 297.419C1158.18 297.334 1156.81 299.206 1156.05 300.512C1155.59 301.278 1155.4 302.129 1155.4 302.98V305.563C1155.4 306.272 1154.86 306.84 1154.15 306.84H1152.5L1151.93 299.519L1151.96 299.49Z" fill="#284485"/>
<path d="M1166.72 278.975H1166.46C1166.26 278.947 1164.87 278.635 1162.83 278.181C1162.01 277.415 1161.41 276.875 1161.41 276.875V275.655V268.675C1161.41 268.533 1161.38 268.419 1161.33 268.278L1165.44 267.426C1166.21 270.775 1166.66 274.605 1166.75 278.947L1166.72 278.975Z" fill="#EAE042"/>
<path d="M1140.07 319.212C1138.34 317.225 1136.04 316.176 1136.04 316.176H1131.5C1131.53 316.034 1131.59 315.92 1131.59 315.778C1131.73 314.927 1131.45 313.792 1130.2 312.26L1130.06 311.295L1144.56 309.167C1146.03 308.94 1147.11 307.634 1147.02 306.13L1146.6 299.944L1151.96 299.462L1152.53 306.783H1154.18C1154.88 306.783 1155.42 306.216 1155.42 305.506V302.924C1155.42 302.073 1155.65 301.193 1156.08 300.455C1156.84 299.122 1158.23 297.277 1159.79 297.362C1159.79 297.362 1162.26 297.504 1164.22 298.98C1165.33 299.831 1166.24 301.079 1166.43 302.952C1166.43 302.952 1168.08 312.487 1162.46 318.19C1161.61 319.098 1160.42 319.609 1159.17 319.779C1158.32 319.864 1157.38 319.893 1156.9 319.581C1156.81 319.524 1156.7 319.581 1156.67 319.666C1156.59 320.801 1156.16 325.511 1154.01 330.931C1148.81 343.842 1134.82 350.908 1121.2 348.099C1118.36 347.503 1115.56 346.481 1113.26 344.835C1113.26 344.835 1102.98 340.352 1100.86 327.498C1100.86 327.498 1092.51 331.045 1089.08 313.366C1088.91 312.402 1088.91 311.408 1089.14 310.472L1091.44 310.926C1091.83 312.685 1095.24 318.19 1095.24 318.19L1096.71 316.232C1097.11 315.495 1097.17 314.586 1096.83 313.82L1099.24 313.395C1099.69 314.899 1101.2 315.92 1102.79 315.693L1115.22 313.48L1116.24 315.75C1116.24 315.75 1113.82 321.056 1121.74 320.716C1121.97 320.716 1122.2 320.687 1122.42 320.631L1123.22 324.461L1116.24 325.88C1118.51 332.463 1128.07 331.101 1128.07 331.101C1135.79 329.881 1137.72 321.482 1137.72 321.482L1140.07 319.183V319.212ZM1162.38 302.64C1162.4 302.129 1162.01 301.647 1161.5 301.704C1159.03 301.931 1157.98 306.216 1157.64 308.202C1157.55 308.798 1157.84 309.365 1158.38 309.592L1160.53 310.529C1160.76 310.727 1162.26 304.995 1162.4 302.64H1162.38Z" fill="#ED979B"/>
<path d="M1084.29 287.147C1084.2 286.892 1084.2 286.636 1084.17 286.381L1084.06 283.685C1083.97 281.784 1084.71 279.911 1086.04 278.577L1087.21 277.414C1088.31 276.307 1088.83 274.775 1088.63 273.214C1088.06 268.816 1088.14 259.793 1098.47 259.594H1098.5C1098.5 259.594 1101.23 252.897 1107.67 252.074C1109.97 251.79 1112.75 252.244 1116.04 254.004C1117.2 254.6 1118.51 254.912 1119.81 254.912C1121.12 254.912 1122.28 254.571 1123.36 253.947C1124.21 253.465 1125.4 252.84 1126.82 252.443C1129.91 251.535 1134.11 251.422 1138.43 254.94C1139.33 255.678 1140.27 256.586 1141.18 257.664C1141.18 257.664 1153.58 256.047 1153.41 263.794C1153.41 263.794 1160.36 264.389 1161.3 268.334C1161.33 268.476 1161.35 268.589 1161.38 268.731V276.903C1161.38 276.903 1162.01 277.442 1162.83 278.209C1163.57 278.89 1164.48 279.769 1165.24 280.621C1166.43 281.954 1167.14 283.685 1167.17 285.473C1162.55 284.253 1155.14 282.578 1146.12 281.642C1132.33 280.223 1114.76 280.507 1097.76 286.665C1093.68 288.14 1089.62 289.956 1085.62 292.17C1085.85 291.943 1086.44 290.921 1085.14 289.077C1084.71 288.509 1084.43 287.856 1084.29 287.175V287.147Z" fill="#F7F3EA"/>
<path d="M1165.41 267.454L1161.3 268.305C1160.36 264.389 1153.41 263.765 1153.41 263.765C1153.55 256.018 1141.18 257.636 1141.18 257.636C1140.27 256.557 1139.33 255.649 1138.43 254.912C1138.28 248.669 1138.88 242.908 1138.88 242.908L1139.02 242.767L1139.16 242.908C1139.53 242.908 1159.99 243.022 1165.44 267.425L1165.41 267.454Z" fill="#F7F3EA"/>
<path d="M1161.5 301.704C1162.01 301.648 1162.4 302.13 1162.38 302.641C1162.23 304.996 1160.73 310.728 1160.5 310.529L1158.35 309.593C1157.81 309.366 1157.52 308.798 1157.61 308.202C1157.95 306.216 1159 301.931 1161.47 301.704H1161.5Z" fill="#284485"/>
<path d="M1159.85 336.635L1160.02 336.777C1150.97 348.638 1137.97 354.001 1137.97 354.001L1137.32 364.983C1129.74 367.65 1124.21 366.572 1120.29 364.274L1118.51 356.442C1118.36 355.505 1117.34 354.484 1116.52 354.342C1114.79 354.058 1113.23 353.405 1111.95 353.207L1112.21 352.072C1112.21 352.072 1112.77 349.972 1113.23 344.921C1115.53 346.567 1118.34 347.588 1121.17 348.184C1134.79 350.994 1148.78 343.899 1153.98 331.017C1156.13 325.597 1156.59 320.887 1156.64 319.751C1156.64 319.751 1159.43 337.174 1159.82 336.664L1159.85 336.635Z" fill="#ED979B"/>
<path d="M1151.59 294.411L1151.99 299.491L1146.63 299.973V299.462C1146.49 298.214 1145.41 297.306 1144.16 297.419L1128.1 299.15C1126.71 299.292 1125.66 300.484 1125.66 301.874V304.229L1118.31 304.627L1118.22 303.719C1118.11 302.271 1116.83 301.193 1115.39 301.363L1098.47 303.208L1097.76 286.608C1114.79 280.45 1132.33 280.195 1146.12 281.585L1146.29 283.486C1146.6 285.53 1146.91 286.778 1147.76 288.027L1151.59 294.354V294.411ZM1144.3 294.127C1144.3 292.907 1143.28 291.886 1142.06 291.886H1128.95C1127.7 291.886 1126.71 292.907 1126.71 294.127C1126.71 295.348 1127.7 296.369 1128.95 296.369H1142.06C1143.28 296.369 1144.3 295.376 1144.3 294.127ZM1116.07 297.135C1116.07 296.965 1116.04 296.795 1115.98 296.596C1115.67 295.404 1114.45 294.667 1113.26 294.979L1100.52 298.185C1099.49 298.441 1098.81 299.349 1098.81 300.342C1098.81 300.512 1098.81 300.711 1098.9 300.881C1099.18 302.101 1100.4 302.811 1101.62 302.527L1114.34 299.32C1115.36 299.065 1116.04 298.157 1116.04 297.135H1116.07Z" fill="#ED979B"/>
<path d="M1129.66 549.909C1129.52 550.25 1127.81 554.308 1122.11 551.328C1122.11 551.328 1106.42 542.957 1101.2 533.678C1101.2 533.678 1095.01 524.882 1090.05 519.519C1088.46 517.816 1087.01 516.454 1085.93 515.801C1089.79 510.353 1095.3 504.536 1103.13 499.854L1110.99 508.083C1110.99 508.083 1116.97 508.225 1122.9 508.537C1122.96 508.537 1123.02 508.537 1123.08 508.537C1127.87 509.019 1132.69 509.615 1134.48 509.842C1134.74 509.871 1134.96 509.928 1135.25 509.928C1137.09 510.013 1140.64 510.211 1141.41 510.268C1141.41 510.268 1147.02 511.204 1139.68 516.596C1139.68 516.596 1134.34 518.1 1130.74 517.646C1130.08 517.561 1129.66 518.327 1130.11 518.809C1133.77 522.839 1141.66 531.181 1147.05 534.586C1148.7 535.636 1149.44 537.736 1149.04 539.609C1148.67 541.34 1147.28 542.759 1143.14 541.34C1143.76 546.504 1139.16 546.362 1137.49 546.164C1137.12 546.107 1136.89 546.05 1136.89 546.05C1136.89 546.05 1136.89 546.079 1136.89 546.135C1136.87 546.902 1136.24 551.782 1129.86 549.909H1129.83C1129.83 549.909 1129.74 549.909 1129.72 549.881L1129.66 549.909Z" fill="#ED979B"/>
<path d="M1147.02 306.159C1147.11 307.663 1146.06 308.997 1144.56 309.196L1130.06 311.324L1129.26 311.437C1127.79 311.664 1126.45 310.529 1126.42 309.082L1125.66 304.23V301.875C1125.66 300.484 1126.71 299.292 1128.1 299.15L1144.16 297.42C1145.38 297.278 1146.49 298.214 1146.57 299.463V299.973L1147.02 306.159ZM1137.04 303.35C1137.04 302.499 1136.36 301.818 1135.5 301.818C1134.65 301.818 1133.97 302.527 1133.97 303.35C1133.97 304.173 1134.68 304.882 1135.5 304.882C1136.33 304.882 1137.04 304.173 1137.04 303.35Z" fill="#ED979B"/>
<path d="M1142.06 291.886C1143.28 291.886 1144.3 292.907 1144.3 294.127C1144.3 295.348 1143.28 296.369 1142.06 296.369H1128.95C1127.7 296.369 1126.71 295.376 1126.71 294.127C1126.71 292.879 1127.7 291.886 1128.95 291.886H1142.06Z" fill="#284485"/>
<path d="M1142.34 772.719V777.571C1137.29 782.111 1128.38 781.118 1123.44 780.125C1121.23 779.671 1118.93 780.125 1116.97 781.288C1108.77 786.112 1093.62 789.829 1093.62 789.829C1071.43 794.171 1064.45 785.488 1064.45 785.488L1066.27 777.259H1066.41C1066.24 778.167 1066.24 779.047 1066.52 779.869C1067 781.345 1068.34 782.735 1071.01 783.757C1071.01 783.757 1084.57 787.247 1099.41 784.239C1100.83 783.956 1102.22 783.445 1103.52 782.764C1108.86 780.096 1123.98 772.861 1131.28 772.662C1140.19 772.435 1142.37 772.662 1142.37 772.662L1142.34 772.719Z" fill="#284485"/>
<path d="M1140.87 754.529L1142.34 772.746C1142.34 772.746 1140.19 772.519 1131.25 772.746C1123.95 772.945 1108.83 780.181 1103.5 782.848C1102.19 783.501 1100.83 784.011 1099.38 784.324C1084.54 787.303 1070.98 783.841 1070.98 783.841C1068.31 782.82 1067 781.429 1066.49 779.954C1066.21 779.102 1066.21 778.223 1066.38 777.343C1066.66 775.697 1067.63 774.08 1068.59 772.803C1069.81 771.157 1071.6 770.05 1073.59 769.625C1084.82 767.213 1089.62 761.821 1091.24 759.523C1091.92 758.53 1092.71 757.622 1093.56 756.77L1099.75 750.613C1099.75 750.613 1130.06 758.757 1140.87 754.585V754.529Z" fill="#243C6B"/>
<path d="M1140.07 319.212L1137.72 321.511L1123.22 324.49L1122.42 320.659C1123.1 320.517 1123.76 320.234 1124.32 319.836C1125.57 318.957 1127.73 317.623 1129.6 317.566C1130.45 317.538 1131.25 316.942 1131.53 316.147H1136.07C1136.07 316.147 1138.37 317.226 1140.1 319.212H1140.07Z" fill="#ED979B"/>
<path d="M1137.69 241.49L1139.02 242.824L1138.88 242.966C1138.88 242.966 1138.31 248.726 1138.43 254.969C1134.11 251.45 1129.91 251.564 1126.82 252.472C1125.86 247.563 1127.56 240.185 1127.56 240.185L1127.76 240.071L1127.81 240.185C1128.04 240.639 1128.52 240.951 1129.03 240.979L1137.69 241.518V241.49Z" fill="#F7F3EA"/>
<path d="M1123.22 324.518L1137.72 321.539C1137.72 321.539 1135.79 329.938 1128.07 331.158C1128.07 331.158 1118.48 332.52 1116.24 325.937L1123.22 324.518Z" fill="#F7F3E9"/>
<path d="M1135.5 304.882C1136.35 304.882 1137.04 304.196 1137.04 303.35C1137.04 302.503 1136.35 301.817 1135.5 301.817C1134.66 301.817 1133.97 302.503 1133.97 303.35C1133.97 304.196 1134.66 304.882 1135.5 304.882Z" fill="#284485"/>
<path d="M1133.32 509.588C1133.72 509.673 1134.09 509.786 1134.45 509.843C1132.67 509.616 1127.84 509.02 1123.05 508.538C1127.33 508.765 1131.53 509.105 1133.32 509.588Z" fill="#ED979B"/>
<path d="M1130.2 312.317C1131.45 313.849 1131.73 314.985 1131.59 315.836C1131.59 315.978 1131.53 316.063 1131.5 316.176C1131.22 316.971 1130.42 317.567 1129.57 317.595C1127.73 317.652 1125.54 318.986 1124.3 319.865C1123.73 320.262 1123.08 320.546 1122.39 320.688C1122.17 320.716 1121.94 320.745 1121.71 320.773C1113.8 321.114 1116.21 315.807 1116.21 315.807L1115.19 313.537C1116.69 313.31 1117.8 311.977 1117.68 310.444L1118.25 304.627L1125.6 304.23L1126.37 309.082C1126.4 310.558 1127.76 311.665 1129.2 311.437L1130 311.324L1130.14 312.289L1130.2 312.317Z" fill="#ED979B"/>
<path d="M1127.76 240.043L1127.56 240.156C1127.56 240.156 1125.86 247.562 1126.82 252.443C1125.4 252.84 1124.21 253.465 1123.36 253.947C1122.28 254.6 1121.06 254.912 1119.81 254.912C1118.56 254.912 1117.2 254.6 1116.04 254.004C1112.75 252.244 1109.99 251.79 1107.67 252.074C1106.67 248.527 1106.5 244.668 1106.5 243.561C1106.59 243.476 1106.67 243.391 1106.76 243.278C1107.55 242.199 1109.26 240.185 1110.99 240.185L1124.78 238.709C1124.78 238.709 1126.99 238.709 1127.76 240.043Z" fill="#F7F3EA"/>
<path d="M1122.88 508.509C1116.97 508.196 1110.96 508.055 1110.96 508.055C1112.04 507.572 1117.43 507.941 1122.88 508.509Z" fill="#F7F3E9"/>
<path d="M1120.32 364.217C1120.07 364.075 1119.84 363.933 1119.61 363.763C1114.73 360.528 1112.55 355.42 1112.04 354.001C1112.01 353.434 1111.98 353.15 1111.98 353.15C1113.26 353.349 1114.82 354.001 1116.55 354.285C1117.4 354.427 1118.39 355.448 1118.54 356.385L1120.32 364.217Z" fill="#F7F3E9"/>
<path d="M1118.22 303.719L1118.31 304.627L1117.74 310.444C1117.85 311.976 1116.75 313.338 1115.24 313.537L1102.81 315.75C1101.2 315.977 1099.72 314.955 1099.27 313.452C1099.21 313.281 1099.15 313.054 1099.13 312.856L1098.76 309.252L1098.5 303.236L1115.41 301.392C1116.83 301.221 1118.14 302.3 1118.25 303.747L1118.22 303.719ZM1112.12 307.039C1112.12 306.187 1111.41 305.506 1110.59 305.506C1109.77 305.506 1109.06 306.187 1109.06 307.039C1109.06 307.89 1109.77 308.571 1110.59 308.571C1111.41 308.571 1112.12 307.89 1112.12 307.039Z" fill="#ED979B"/>
<path d="M1116.01 296.596C1116.04 296.766 1116.09 296.965 1116.09 297.135C1116.09 298.157 1115.39 299.065 1114.39 299.32L1101.68 302.526C1100.46 302.81 1099.27 302.101 1098.96 300.881C1098.9 300.71 1098.87 300.512 1098.87 300.342C1098.87 299.348 1099.55 298.44 1100.57 298.185L1113.31 294.978C1114.51 294.666 1115.73 295.404 1116.04 296.596H1116.01Z" fill="#284485"/>
<path d="M1110.56 305.506C1111.41 305.506 1112.09 306.187 1112.09 307.039C1112.09 307.89 1111.38 308.571 1110.56 308.571C1109.74 308.571 1109.03 307.89 1109.03 307.039C1109.03 306.187 1109.74 305.506 1110.56 305.506Z" fill="#284485"/>
<path d="M1106.5 243.562C1106.5 244.668 1106.67 248.527 1107.67 252.074C1101.23 252.869 1098.5 259.594 1098.5 259.594H1098.47C1097.39 254.94 1096.97 250.514 1096.88 249.492C1097.08 249.293 1097.25 249.095 1097.39 248.839C1098.13 247.619 1100.23 245.009 1105.43 244.044C1105.82 243.959 1106.19 243.817 1106.5 243.562Z" fill="#EAE042"/>
<path d="M1103.75 357.661L1097.76 360.924L1092.63 363.762C1096.57 361.464 1100.49 359.364 1103.78 357.661H1103.75Z" fill="#F7F3E9"/>
<path d="M1085.9 515.801C1079.4 525.024 1077.67 533.196 1077.67 533.196C1067.54 525.96 1051.74 467.676 1051.74 467.676L1072.96 379.227C1074.78 375.652 1080.48 371.254 1086.95 367.139L1085.68 442.847L1085.45 455.445V457.772L1093.05 476.472L1097.76 487.993L1102.3 499.059L1103.07 499.854C1095.24 504.536 1089.73 510.353 1085.87 515.801H1085.9Z" fill="#F7F3E9"/>
<path d="M1090.93 307.323C1091.18 307.067 1091.46 306.84 1091.75 306.642C1093.65 305.365 1096.17 305.138 1098.73 309.252L1099.1 312.856C1099.1 313.083 1099.18 313.282 1099.24 313.452L1096.83 313.877C1094.84 309.337 1091.35 310.586 1091.46 310.955L1089.17 310.501C1089.42 309.281 1090.02 308.145 1090.93 307.294V307.323Z" fill="#ED979B"/>
<path d="M1098.47 303.208L1098.73 309.224C1096.15 305.109 1093.62 305.364 1091.75 306.613C1091.46 306.812 1091.18 307.039 1090.93 307.294L1084.97 296.085C1084.97 296.085 1083.89 294.014 1085.56 292.198C1085.56 292.198 1085.56 292.198 1085.59 292.141C1089.56 289.928 1093.62 288.112 1097.74 286.636L1098.44 303.236L1098.47 303.208Z" fill="#284485"/>
<path d="M1096.88 249.492C1096.97 250.514 1097.42 254.94 1098.47 259.594C1088.12 259.793 1088.06 268.816 1088.63 273.215C1088.83 274.775 1088.31 276.308 1087.21 277.414L1086.04 278.578C1084.68 279.94 1083.97 281.784 1084.06 283.685L1084.17 286.381C1084.17 286.636 1084.2 286.892 1084.29 287.147C1083.66 287.544 1083.12 287.913 1082.61 288.254C1082.61 288.254 1079.15 258.941 1096.29 249.889C1096.52 249.776 1096.69 249.634 1096.88 249.492Z" fill="#F7F3EA"/>
<path d="M1092.6 363.734L1097.74 360.925C1097.71 362.344 1095.32 436.32 1097.65 442.761C1097.68 442.875 1097.59 442.988 1097.48 442.988L1085.7 442.847L1086.98 367.139C1088.83 365.976 1090.7 364.841 1092.6 363.734Z" fill="#2A4385"/>
<path d="M1096.83 313.877C1097.17 314.644 1097.11 315.552 1096.71 316.289L1095.24 318.247C1095.24 318.247 1091.83 312.742 1091.44 310.983C1091.35 310.614 1094.81 309.337 1096.8 313.906L1096.83 313.877Z" fill="#284485"/>
<path d="M1080.99 532.572C1080.03 533.139 1079.01 533.48 1077.96 533.48L1077.67 533.196C1077.67 533.196 1079.4 525.023 1085.9 515.801C1086.98 516.454 1088.43 517.788 1090.02 519.519L1089.71 519.802C1089.71 519.802 1086.13 529.507 1080.99 532.572Z" fill="#294485"/>
<path d="M1085.16 289.048C1086.47 290.893 1085.87 291.914 1085.65 292.141C1083.66 293.248 1081.7 294.44 1079.77 295.745C1079.77 295.745 1076.62 292.624 1082.67 288.225C1083.15 287.885 1083.72 287.516 1084.34 287.119C1084.48 287.8 1084.8 288.452 1085.19 289.02L1085.16 289.048Z" fill="#F7F3EA"/>
<path d="M1085.62 292.142L1085.59 292.198C1083.89 294.014 1084.99 296.086 1084.99 296.086C1081.56 297.788 1079.77 295.745 1079.77 295.745C1081.7 294.44 1083.66 293.22 1085.65 292.142H1085.62Z" fill="#F7F3EA"/>
<path d="M1103.86 357.605C1105.6 356.697 1107.16 355.931 1108.4 355.335C1110.56 354.257 1111.9 353.632 1111.9 353.632C1111.9 353.632 1111.92 353.774 1112.04 354.03C1112.55 355.448 1114.73 360.556 1119.61 363.791C1119.84 363.933 1120.07 364.075 1120.32 364.245C1124.24 366.543 1129.74 367.622 1137.35 364.954C1145.12 362.23 1155.03 355.619 1167.6 342.481C1168.36 341.714 1168.56 340.523 1168.11 339.558L1167.26 337.6L1164.59 331.584C1164.39 331.102 1163.71 331.102 1163.45 331.556C1162.4 333.4 1161.24 335.16 1160.02 336.777C1150.97 348.638 1137.97 354.001 1137.97 354.001L1137.32 364.983V365.125" stroke="#294485" stroke-width="1.4188" stroke-miterlimit="10"/>
<path d="M1092.6 363.734C1096.54 361.436 1100.46 359.336 1103.75 357.633" stroke="#294485" stroke-width="1.4188" stroke-miterlimit="10"/>
<path d="M1103.1 499.854C1095.27 504.536 1089.76 510.353 1085.9 515.802C1079.4 525.024 1077.67 533.196 1077.67 533.196C1067.54 525.96 1051.74 467.676 1051.74 467.676L1072.96 379.228C1074.78 375.652 1080.48 371.254 1086.95 367.139C1088.8 365.976 1090.67 364.841 1092.57 363.734" stroke="#294485" stroke-width="1.4188" stroke-miterlimit="10"/>
<path d="M1146.12 281.642L1146.29 283.543C1146.6 285.586 1146.91 286.834 1147.76 288.083L1151.59 294.411L1151.99 299.49L1152.56 306.811H1154.2C1154.91 306.811 1155.45 306.244 1155.45 305.534V302.952C1155.45 302.101 1155.68 301.221 1156.11 300.483C1156.87 299.15 1158.26 297.305 1159.82 297.39C1159.82 297.39 1162.29 297.532 1164.25 299.008C1165.36 299.859 1166.26 301.108 1166.46 302.98C1166.46 302.98 1168.11 312.515 1162.49 318.218C1161.64 319.126 1160.45 319.637 1159.2 319.807C1158.35 319.893 1157.41 319.921 1156.93 319.609C1156.84 319.552 1156.73 319.609 1156.7 319.694C1156.62 320.829 1156.19 325.539 1154.03 330.959C1148.84 343.87 1134.85 350.936 1121.23 348.127C1118.39 347.531 1115.58 346.509 1113.29 344.863" stroke="#294485" stroke-width="1.4188" stroke-miterlimit="10"/>
<path d="M1120.32 364.216L1118.54 356.384C1118.39 355.448 1117.37 354.426 1116.55 354.284C1114.82 354.001 1113.26 353.348 1111.98 353.149L1112.24 352.014C1112.24 352.014 1112.8 349.914 1113.26 344.863C1113.26 344.863 1102.98 340.38 1100.86 327.526C1100.86 327.526 1092.51 331.073 1089.08 313.394C1088.91 312.43 1088.91 311.436 1089.14 310.5C1089.39 309.28 1089.99 308.145 1090.9 307.294C1091.15 307.038 1091.44 306.811 1091.72 306.613C1093.62 305.336 1096.15 305.109 1098.7 309.223L1098.44 303.207L1097.74 286.607" stroke="#294485" stroke-width="1.4188" stroke-miterlimit="10"/>
<path d="M1089.7 519.803C1089.7 519.803 1086.13 529.507 1080.99 532.572C1080.03 533.139 1079.01 533.48 1077.96 533.48" stroke="#294485" stroke-width="1.4188" stroke-miterlimit="10"/>
<path d="M1167.2 285.444C1167.2 285.444 1167.2 285.615 1167.2 285.671V285.955C1167.2 286.977 1167.11 287.998 1166.94 289.02C1166.83 289.786 1166.66 290.524 1166.46 291.261L1164.25 299.008" stroke="#294485" stroke-width="1.4188" stroke-miterlimit="10"/>
<path d="M1090.98 307.408L1090.93 307.323L1084.97 296.114C1084.97 296.114 1083.89 294.043 1085.56 292.227C1085.56 292.227 1085.56 292.227 1085.59 292.17" stroke="#294485" stroke-width="1.4188" stroke-miterlimit="10"/>
<path d="M1170.32 338.536C1170.32 338.536 1170.29 338.536 1170.26 338.536C1168.36 337.941 1167.29 337.628 1167.29 337.628" stroke="#294485" stroke-width="1.4188" stroke-miterlimit="10"/>
<path d="M1206.22 351.646C1194.9 346.311 1177.9 340.863 1170.72 338.621" stroke="#294485" stroke-width="1.4188" stroke-miterlimit="10"/>
<path d="M1213.11 355.335C1211.44 354.256 1209.34 353.121 1206.95 351.986" stroke="#294485" stroke-width="1.4188" stroke-miterlimit="10"/>
<path d="M1170.04 487.397C1162.18 495.938 1156.3 502.493 1156.3 502.493C1157.84 502.493 1164.9 511.573 1171.46 520.484C1174.35 524.399 1177.1 528.287 1179.29 531.323C1181.87 534.927 1183.54 537.367 1183.54 537.367C1185.45 536.828 1188.17 534.643 1191.38 531.323C1198.13 524.343 1207.04 512.396 1215.04 500.223C1225.43 484.474 1234.31 468.357 1235.08 462.227C1236.75 449.174 1228.8 402.609 1228.8 402.609C1228.8 402.609 1219.27 366.941 1217.11 359.308C1216.77 358.144 1215.35 356.782 1213.2 355.392" stroke="#294485" stroke-width="1.4188" stroke-miterlimit="10"/>
<path d="M1204.17 452.125C1202.41 453.715 1200.26 455.786 1197.85 458.17C1192.57 463.419 1186.04 470.258 1179.77 476.955C1176.42 480.558 1173.1 484.134 1170.09 487.425" stroke="#294485" stroke-width="1.4188" stroke-miterlimit="10"/>
<path d="M1135.19 509.928C1137.04 510.013 1140.58 510.211 1141.35 510.268C1141.35 510.268 1146.97 511.205 1139.62 516.596C1139.62 516.596 1134.28 518.1 1130.68 517.646C1130.03 517.561 1129.6 518.327 1130.06 518.809C1133.72 522.839 1141.6 531.181 1147 534.587C1148.64 535.636 1149.38 537.736 1148.98 539.609C1148.61 541.34 1147.22 542.759 1143.08 541.34C1143.08 541.34 1129.15 534.274 1128.21 532.373" stroke="#294485" stroke-width="1.4188" stroke-miterlimit="10"/>
<path d="M1123.02 508.538C1127.3 508.765 1131.5 509.105 1133.29 509.588C1133.69 509.673 1134.06 509.786 1134.43 509.843" stroke="#294485" stroke-width="1.4188" stroke-miterlimit="10"/>
<path d="M1110.96 508.055C1110.96 508.055 1116.95 508.197 1122.88 508.509" stroke="#294485" stroke-width="1.4188" stroke-miterlimit="10"/>
<path d="M1129.77 549.938C1129.77 549.938 1129.69 549.938 1129.66 549.909C1129.52 550.278 1127.81 554.308 1122.11 551.328C1122.11 551.328 1106.42 542.957 1101.2 533.678C1101.2 533.678 1095.01 524.882 1090.05 519.518C1088.46 517.816 1087.01 516.454 1085.93 515.801C1085.76 515.716 1085.62 515.631 1085.48 515.574" stroke="#294485" stroke-width="1.4188" stroke-miterlimit="10"/>
<path d="M1143.08 541.368C1143.7 546.533 1139.11 546.391 1137.43 546.192C1137.06 546.135 1136.84 546.079 1136.84 546.079C1136.84 546.079 1136.84 546.107 1136.84 546.164C1136.81 546.93 1136.19 551.811 1129.8 549.938" stroke="#294485" stroke-width="1.4188" stroke-miterlimit="10"/>
<path d="M1123.53 538.729C1123.53 538.729 1133.91 545.568 1136.87 546.192C1137.15 546.278 1137.35 546.278 1137.46 546.192" stroke="#294485" stroke-width="1.4188" stroke-miterlimit="10"/>
<path d="M1119.27 543.61C1119.27 543.61 1127.1 549.37 1129.63 549.909C1129.66 549.909 1129.72 549.909 1129.74 549.909H1129.77C1129.94 549.938 1130.06 549.938 1130.17 549.909" stroke="#294485" stroke-width="1.4188" stroke-miterlimit="10"/>
<path d="M1215.01 500.223L1217 529.535L1218.56 552.406C1218.56 552.406 1214.96 554.109 1208.18 556.294C1189.56 562.281 1146.97 571.957 1089.71 559.841C1086.84 559.245 1083.94 558.564 1080.99 557.854V531.351" stroke="#294485" stroke-width="1.4188" stroke-miterlimit="10"/>
<path d="M1089.7 559.869C1104.86 661.03 1099.75 750.557 1099.75 750.557C1099.75 750.557 1130.06 758.7 1140.87 754.529C1141.78 754.189 1142.57 753.735 1143.17 753.195C1143.17 753.195 1142.43 587.252 1147.05 582.967C1147.05 582.967 1175.09 683.617 1176.39 760.148C1176.39 760.148 1177.05 760.602 1178.27 761.226C1183.03 763.695 1196.37 768.774 1211.89 759.211C1212.18 759.041 1212.46 758.871 1212.74 758.672C1212.74 758.672 1206.39 556.861 1208.18 556.294" stroke="#294485" stroke-width="1.4188" stroke-miterlimit="10"/>
<path d="M1147 534.615C1147 534.615 1151.48 534.558 1156.67 531.351C1158.97 529.933 1161.41 527.89 1163.65 524.938L1171.43 520.483" stroke="#294485" stroke-width="1.4188" stroke-miterlimit="10"/>
<path d="M1099.75 750.556L1093.56 756.714C1092.71 757.565 1091.92 758.473 1091.24 759.466C1089.65 761.765 1084.82 767.128 1073.59 769.568C1071.6 769.994 1069.81 771.1 1068.59 772.746C1067.63 774.023 1066.69 775.641 1066.38 777.286C1066.21 778.166 1066.21 779.046 1066.49 779.897C1066.98 781.373 1068.31 782.763 1070.98 783.784C1070.98 783.784 1084.54 787.275 1099.38 784.267C1100.8 783.983 1102.19 783.472 1103.5 782.791C1108.83 780.124 1123.95 772.888 1131.25 772.689C1140.16 772.462 1142.34 772.689 1142.34 772.689L1140.87 754.472" stroke="#294485" stroke-width="1.4188" stroke-miterlimit="10"/>
<path d="M1142.34 772.718V777.571C1137.29 782.111 1128.38 781.118 1123.44 780.124C1121.23 779.67 1118.93 780.124 1116.97 781.288C1108.77 786.112 1093.62 789.829 1093.62 789.829C1071.43 794.171 1064.45 785.487 1064.45 785.487L1066.27 777.258" stroke="#294485" stroke-width="1.4188" stroke-miterlimit="10"/>
<path d="M1178.27 761.226L1173.64 774.903C1173.64 774.903 1166.92 781.486 1167.17 787.757C1167.2 788.836 1167.03 789.914 1166.63 790.907C1165.98 792.525 1165.41 794.993 1167.17 796.214C1167.17 796.214 1176.65 807.706 1200.09 798.171C1200.09 798.171 1207.98 793.518 1208.66 789.574C1208.66 789.574 1208.49 784.04 1210.64 782.111C1211.3 781.515 1211.55 780.635 1211.55 779.755V774.279C1211.55 774.279 1212.77 769.795 1211.55 767.128C1211.55 767.128 1210.7 760.999 1211.89 759.154C1212.12 758.814 1212.37 758.615 1212.74 758.615" stroke="#294485" stroke-width="1.4188" stroke-miterlimit="10"/>
<path d="M1098.47 303.208L1115.39 301.363C1116.8 301.193 1118.11 302.271 1118.22 303.719L1118.31 304.627L1117.74 310.444C1117.85 311.976 1116.75 313.338 1115.24 313.537L1102.81 315.75C1101.2 315.977 1099.72 314.956 1099.27 313.452C1099.21 313.281 1099.15 313.054 1099.13 312.856L1098.76 309.252" stroke="#294485" stroke-width="1.4188" stroke-miterlimit="10"/>
<path d="M1118.31 304.627L1125.66 304.23M1125.66 304.23V301.875C1125.66 300.484 1126.71 299.292 1128.1 299.15L1144.16 297.42C1145.38 297.278 1146.49 298.214 1146.57 299.463V299.973L1147.02 306.159C1147.11 307.663 1146.06 308.997 1144.56 309.196L1130.06 311.324L1129.26 311.437C1127.79 311.664 1126.45 310.529 1126.42 309.082L1125.66 304.23Z" stroke="#294485" stroke-width="1.4188" stroke-miterlimit="10"/>
<path d="M1154.12 299.321L1151.96 299.491L1146.6 299.973" stroke="#294485" stroke-width="1.4188" stroke-miterlimit="10"/>
<path d="M1112.12 307.039C1112.12 307.89 1111.41 308.571 1110.59 308.571C1109.77 308.571 1109.06 307.89 1109.06 307.039C1109.06 306.187 1109.77 305.506 1110.59 305.506C1111.41 305.506 1112.12 306.187 1112.12 307.039Z" stroke="#294485" stroke-width="1.4188" stroke-miterlimit="10"/>
<path d="M1135.5 304.882C1136.35 304.882 1137.04 304.196 1137.04 303.35C1137.04 302.503 1136.35 301.817 1135.5 301.817C1134.66 301.817 1133.97 302.503 1133.97 303.35C1133.97 304.196 1134.66 304.882 1135.5 304.882Z" stroke="#294485" stroke-width="1.4188" stroke-miterlimit="10"/>
<path d="M1113.91 304.712L1108.23 305.251" stroke="#294485" stroke-width="1.4188" stroke-miterlimit="10"/>
<path d="M1137.72 301.193L1130.2 301.903" stroke="#294485" stroke-width="1.4188" stroke-miterlimit="10"/>
<path d="M1142.06 296.369H1128.95C1127.7 296.369 1126.71 295.376 1126.71 294.127C1126.71 292.879 1127.7 291.886 1128.95 291.886H1142.06C1143.28 291.886 1144.3 292.907 1144.3 294.127C1144.3 295.348 1143.28 296.369 1142.06 296.369Z" stroke="#294485" stroke-width="1.4188" stroke-miterlimit="10"/>
<path d="M1114.36 299.32L1101.65 302.526C1100.43 302.81 1099.24 302.101 1098.93 300.881C1098.87 300.71 1098.84 300.512 1098.84 300.342C1098.84 299.348 1099.52 298.44 1100.54 298.185L1113.29 294.978C1114.48 294.666 1115.7 295.404 1116.01 296.596C1116.04 296.766 1116.09 296.965 1116.09 297.135C1116.09 298.157 1115.39 299.065 1114.39 299.32H1114.36Z" stroke="#294485" stroke-width="1.4188" stroke-miterlimit="10"/>
<path d="M1136.04 316.205C1136.04 316.205 1138.34 317.255 1140.07 319.241C1141.12 320.433 1141.97 321.965 1142.03 323.781" stroke="#294485" stroke-width="1.4188" stroke-miterlimit="10"/>
<path d="M1137.72 321.539C1137.72 321.539 1135.79 329.938 1128.07 331.158C1128.07 331.158 1118.48 332.52 1116.24 325.937L1123.22 324.518L1137.72 321.539Z" stroke="#294485" stroke-width="1.4188" stroke-miterlimit="10"/>
<path d="M1116.24 315.778C1116.24 315.778 1113.82 321.085 1121.74 320.744C1121.97 320.744 1122.2 320.716 1122.42 320.659C1123.1 320.517 1123.76 320.233 1124.32 319.836C1125.57 318.956 1127.73 317.623 1129.6 317.566C1130.45 317.538 1131.25 316.942 1131.53 316.147C1131.56 316.034 1131.62 315.92 1131.62 315.807C1131.76 314.955 1131.47 313.82 1130.23 312.288" stroke="#294485" stroke-width="1.4188" stroke-miterlimit="10"/>
<path d="M1159.85 336.635C1159.45 337.146 1156.67 319.723 1156.67 319.723" stroke="#294485" stroke-width="1.4188" stroke-miterlimit="10"/>
<path d="M1158.35 309.621C1157.81 309.394 1157.52 308.827 1157.61 308.231C1157.95 306.244 1159 301.96 1161.47 301.733C1161.98 301.676 1162.38 302.158 1162.35 302.669C1162.21 305.024 1160.7 310.756 1160.47 310.558L1158.32 309.621H1158.35Z" stroke="#294485" stroke-width="1.4188" stroke-miterlimit="10"/>
<path d="M1096.83 313.877C1097.17 314.644 1097.11 315.552 1096.71 316.289L1095.24 318.247C1095.24 318.247 1091.83 312.742 1091.44 310.983C1091.35 310.614 1094.81 309.337 1096.8 313.906L1096.83 313.877Z" stroke="#294485" stroke-width="1.4188" stroke-miterlimit="10"/>
<path d="M1082.61 288.254C1082.61 288.254 1079.15 258.941 1096.29 249.889C1096.52 249.776 1096.69 249.634 1096.88 249.492C1097.08 249.293 1097.25 249.095 1097.39 248.839C1098.13 247.619 1100.23 245.008 1105.43 244.044C1105.82 243.959 1106.19 243.817 1106.5 243.561C1106.59 243.476 1106.67 243.391 1106.76 243.278C1107.55 242.199 1109.26 240.185 1110.99 240.185L1124.78 238.709C1124.78 238.709 1126.99 238.709 1127.76 240.043L1127.81 240.156C1128.04 240.61 1128.52 240.922 1129.03 240.951L1137.69 241.49L1139.02 242.824L1139.16 242.965C1139.53 242.965 1159.99 243.079 1165.44 267.482C1166.21 270.831 1166.66 274.661 1166.75 279.003C1166.75 279.003 1172.56 279.826 1172.36 287.005C1172.36 287.005 1170.49 286.352 1167.2 285.473C1162.57 284.253 1155.17 282.578 1146.14 281.642C1132.35 280.223 1114.79 280.507 1097.79 286.665C1093.71 288.14 1089.65 289.956 1085.65 292.169C1083.66 293.276 1081.7 294.468 1079.77 295.773C1079.77 295.773 1076.62 292.652 1082.67 288.254C1083.15 287.913 1083.72 287.544 1084.34 287.147C1087.83 285.047 1093.45 282.692 1102.36 280.28" fill="#F7F3EA"/>
<path d="M1082.61 288.254C1082.61 288.254 1079.15 258.941 1096.29 249.889C1096.52 249.776 1096.69 249.634 1096.88 249.492C1097.08 249.293 1097.25 249.095 1097.39 248.839C1098.13 247.619 1100.23 245.008 1105.43 244.044C1105.82 243.959 1106.19 243.817 1106.5 243.561C1106.59 243.476 1106.67 243.391 1106.76 243.278C1107.55 242.199 1109.26 240.185 1110.99 240.185L1124.78 238.709C1124.78 238.709 1126.99 238.709 1127.76 240.043L1127.81 240.156C1128.04 240.61 1128.52 240.922 1129.03 240.951L1137.69 241.49L1139.02 242.824L1139.16 242.965C1139.53 242.965 1159.99 243.079 1165.44 267.482C1166.21 270.831 1166.66 274.661 1166.75 279.003C1166.75 279.003 1172.56 279.826 1172.36 287.005C1172.36 287.005 1170.49 286.352 1167.2 285.473C1162.57 284.253 1155.17 282.578 1146.14 281.642C1132.35 280.223 1114.79 280.507 1097.79 286.665C1093.71 288.14 1089.65 289.956 1085.65 292.169C1083.66 293.276 1081.7 294.468 1079.77 295.773C1079.77 295.773 1076.62 292.652 1082.67 288.254C1083.15 287.913 1083.72 287.544 1084.34 287.147C1087.83 285.047 1093.45 282.692 1102.36 280.28" stroke="#294485" stroke-width="1.4188" stroke-miterlimit="10"/>
<path d="M1166.46 278.975C1166.26 278.946 1164.87 278.634 1162.83 278.18C1156.76 276.903 1144.78 274.633 1139.59 275.57" stroke="#294485" stroke-width="1.4188" stroke-miterlimit="10"/>
<path d="M1096.88 249.293C1096.88 249.293 1096.88 249.379 1096.88 249.492C1096.97 250.514 1097.42 254.94 1098.47 259.594C1099.55 264.503 1101.34 269.611 1104.06 271.115" stroke="#294485" stroke-width="1.4188" stroke-miterlimit="10"/>
<path d="M1106.5 243.25V243.533C1106.5 244.64 1106.67 248.499 1107.67 252.046C1108.21 254.089 1109.06 256.047 1110.31 257.324" stroke="#294485" stroke-width="1.4188" stroke-miterlimit="10"/>
<path d="M1127.56 240.156C1127.56 240.156 1125.86 247.562 1126.82 252.443C1126.96 253.294 1127.22 254.089 1127.56 254.713" stroke="#294485" stroke-width="1.4188" stroke-miterlimit="10"/>
<path d="M1138.88 242.937C1138.88 242.937 1138.31 248.697 1138.43 254.94C1138.57 259.878 1139.14 265.099 1140.78 267.993" stroke="#294485" stroke-width="1.4188" stroke-miterlimit="10"/>
<path d="M1079.74 295.773C1079.74 295.773 1081.53 297.817 1084.97 296.114" stroke="#294485" stroke-width="1.4188" stroke-miterlimit="10"/>
<path d="M1172.34 286.977C1172.34 286.977 1173.13 291.205 1166.94 289.02" stroke="#294485" stroke-width="1.4188" stroke-miterlimit="10"/>
<path d="M1180.17 341.828C1188.03 344.524 1198.92 348.411 1206.19 351.646C1206.22 351.646 1206.27 351.646 1206.3 351.675C1206.5 351.788 1206.73 351.873 1206.93 351.958C1209.74 353.235 1211.95 354.37 1213.08 355.307C1213.08 355.307 1213.14 355.335 1213.17 355.364" stroke="#294485" stroke-width="1.4188" stroke-miterlimit="10"/>
<path d="M1097.74 360.925L1103.72 357.662L1103.84 357.605L1108.4 355.108L1111.95 353.15C1111.95 353.15 1111.95 353.434 1112.01 354.001C1112.41 358.683 1115.04 381.469 1130.48 393.018C1130.48 393.018 1170.52 342.537 1170.26 338.479C1170.26 338.479 1170.26 338.479 1170.32 338.479C1170.43 338.479 1170.55 338.536 1170.69 338.593C1171.8 338.962 1175.06 340.04 1179.34 341.487" stroke="#294485" stroke-width="1.4188" stroke-miterlimit="10"/>
<path d="M1156.3 502.521L1143.45 510.836C1143.45 510.836 1138.8 508.679 1135.22 509.928C1134.96 509.928 1134.74 509.871 1134.45 509.842C1132.67 509.615 1127.84 509.019 1123.05 508.537C1122.99 508.537 1122.93 508.537 1122.88 508.537C1117.46 507.998 1112.04 507.629 1110.96 508.083L1103.1 499.854L1102.33 499.059L1097.79 487.993L1093.08 476.472L1085.42 457.772V455.445L1085.68 442.847L1086.95 367.139V366.799L1092.57 363.734L1097.71 360.925" stroke="#294485" stroke-width="1.4188" stroke-miterlimit="10"/>
<path d="M1097.74 360.925C1097.71 362.344 1095.32 436.348 1097.65 442.79C1097.68 442.903 1097.59 443.017 1097.48 443.017L1085.7 442.875" stroke="#294485" stroke-width="1.4188" stroke-miterlimit="10"/>
<path d="M1108.43 355.108C1108.43 355.108 1108.43 355.193 1108.43 355.335C1108.09 359.988 1102.39 436.689 1107.01 442.393C1107.16 442.563 1107.38 442.62 1107.61 442.62L1166.49 443.272C1166.49 443.272 1167.51 357.775 1179.37 341.516C1179.66 341.601 1179.91 341.686 1180.22 341.799L1190.44 345.517C1190.44 345.517 1177.84 396.877 1179.86 443.357H1195.83" stroke="#294485" stroke-width="1.4188" stroke-miterlimit="10"/>
<path d="M1085.48 455.445L1196.8 456.637" stroke="#294485" stroke-width="1.4188" stroke-miterlimit="10"/>
<path d="M1093.11 476.472H1179.26" stroke="#294485" stroke-width="1.4188" stroke-miterlimit="10"/>
<path d="M1098.27 487.765L1170.04 487.396H1170.07" stroke="#294485" stroke-width="1.4188" stroke-miterlimit="10"/>
<path d="M1156.7 531.352H1179.26" stroke="#294485" stroke-width="1.4188" stroke-miterlimit="10"/>
<path d="M1191.32 531.352H1191.35L1217 529.536" stroke="#294485" stroke-width="1.4188" stroke-miterlimit="10"/>
<path d="M1206.3 351.703C1206.3 351.703 1190.04 390.436 1195.72 443.386C1196.17 447.67 1196.77 452.04 1197.56 456.495C1197.65 457.035 1197.73 457.602 1197.85 458.141" stroke="#294485" stroke-width="1.4188" stroke-miterlimit="10"/>
</g>
<defs>
<clipPath id="clip0_3259_414">
<rect width="184.984" height="564.712" fill="white" transform="translate(1051 238)"/>
</clipPath>
</defs>
</svg>
