<svg preserveAspectRatio="none" width="100%" height="100%" overflow="visible" style="display: block;" viewBox="0 0 134.155 1130.78" fill="none" xmlns="http://www.w3.org/2000/svg">
<g id="Group 77">
<path id="Vector" d="M39.604 957.686L40.674 920.73L41.604 890.683L42.6139 856.399L43.604 821.031L44.6439 786.736L45.6839 752.441L46.6439 722.426L47.6639 688.131L48.6539 654.866L48.7539 609.876L47.2139 591.06C46.5139 582.521 39.664 576.889 32.544 573.864C26.914 571.472 21.0139 569.788 16.4339 565.304C11.8539 560.82 8.97393 553.643 8.52393 546.692L1.77393 443.817L0.61393 404.985C-1.24607 342.327 0.953945 280.441 9.50395 218.384C14.6839 180.763 21.8939 144.698 33.5939 109.019C46.8439 68.6096 71.2139 15.9065 109.624 0.641627C112.114 -0.345282 115.774 -0.184373 118.154 1.05999C120.124 2.08981 122.704 5.27581 122.704 8.97672L122.734 591.35L123.214 631.309L124.174 670.957L125.144 711.677L126.164 754.554L127.164 796.358L128.104 834.955L129.154 878.894L130.124 918.553L131.104 956.077L132.164 994.641L133.134 1028.95L134.124 1067.57C134.534 1083.69 130.944 1099.4 121.254 1111.88C111.384 1124.58 97.174 1131.91 81.794 1130.64C67.464 1129.46 54.2739 1120.68 45.9639 1107.11C36.8939 1092.29 35.9039 1075.44 36.5039 1057.84L37.6339 1024.67L38.6339 991.445L39.604 957.664V957.686ZM39.1339 1075.7C40.0539 1089.93 44.734 1102.35 53.074 1112.33C68.864 1131.23 94.9539 1133.37 112.994 1116.91C123.894 1106.97 130.014 1093.1 131.364 1077.84L131.444 1058.04L130.544 1021.49L129.524 983.978L128.564 943.268L127.564 905.744L126.564 868.21L125.544 828.551L124.544 789.954L123.504 748.161L122.524 703.16L121.504 662.396L120.684 613.126L120.104 594.557L120.084 8.81581C120.084 4.31035 115.954 1.73581 112.464 2.78708C94.8339 8.07563 78.4139 25.3894 67.7239 41.652C17.1239 118.588 5.11393 250.555 2.27393 343.904V381.578L3.24394 418.136C4.38394 461.314 7.44396 503.461 11.174 546.381C11.734 552.86 14.464 560.047 18.794 563.823C23.124 567.599 28.634 569.326 33.764 571.44C43.494 575.452 50.5639 583.862 50.5339 595.64L50.3139 679.442L49.1439 717.062L48.2139 749.244L47.204 783.507L46.1139 822.308L39.354 1050.14L39.1439 1075.69L39.1339 1075.7Z" fill="var(--fill-0, #F8F3E9)"/>
<path id="Vector_2" d="M39.1344 1075.7L39.3444 1050.16L46.1044 822.319L47.1944 783.518L48.2044 749.255L49.1344 717.073L50.3044 679.453L50.5244 595.651C50.5544 583.873 43.4844 575.463 33.7544 571.451C28.6244 569.337 23.1444 567.643 18.7844 563.834C14.4244 560.026 11.7244 552.86 11.1644 546.392C7.44443 503.472 4.37444 461.324 3.23444 418.147L2.27441 381.589V343.914C5.10441 250.566 17.1144 118.588 67.7144 41.6628C78.4144 25.4003 94.8344 8.08647 112.454 2.79792C115.944 1.74665 120.074 4.33192 120.074 8.82665L120.094 594.568L120.674 613.137L121.494 662.407L122.514 703.171L123.494 748.172L124.534 789.965L125.534 828.562L126.554 868.221L127.554 905.755L128.554 943.279L129.514 983.989L130.534 1021.5L131.434 1058.05L131.354 1077.85C129.994 1093.12 123.874 1106.99 112.984 1116.92C94.9544 1133.38 68.8544 1131.24 53.0644 1112.34C44.7244 1102.36 40.0444 1089.94 39.1244 1075.71L39.1344 1075.7Z" fill="var(--fill-0, #142560)"/>
</g>
</svg>
